<?xml version="1.0" encoding="utf-8"?>
<!-- Generator: Adobe Illustrator 23.0.0, SVG Export Plug-In . SVG Version: 6.00 Build 0)  -->
<svg version="1.1" id="Layer_1" xmlns="http://www.w3.org/2000/svg" xmlns:xlink="http://www.w3.org/1999/xlink" x="0px" y="0px"
	 viewBox="0 0 1000 1000" style="enable-background:new 0 0 1000 1000;" xml:space="preserve">
<style type="text/css">
	.st0{fill:url(#SVGID_1_);}
	.st1{fill:url(#SVGID_2_);}
	.st2{fill:url(#SVGID_3_);}
	.st3{fill:url(#SVGID_4_);}
</style>
<g>
	<g>
		<linearGradient id="SVGID_1_" gradientUnits="userSpaceOnUse" x1="1103.4747" y1="40.3299" x2="-253.7536" y2="1111.8259">
			<stop  offset="0" style="stop-color:#3BF2A9"/>
			<stop  offset="1" style="stop-color:#46D1EB"/>
		</linearGradient>
		<path class="st0" d="M511.1,988.1l50.1-20.6c26.8-11,39.4-41.9,28.4-68.5L576.7,868c25.1-18.6,47-40.7,65.8-65.8l31.1,12.9
			c12.9,5.3,27.2,5.3,40,0c12.9-5.3,23.1-15.5,28.4-28.4l20.8-50.1c11-26.8-1.6-57.4-28.4-68.4l-46-19c-10.4-4.3-22.1,0.6-26.4,11
			c-4.3,10.4,0.6,22.1,11,26.4l46,19c6.1,2.5,9,9.6,6.5,15.7l-20.8,50.1c-1.2,2.9-3.5,5.3-6.5,6.5c-2.9,1.2-6.1,1.2-9.2,0l-46-19
			c-9-3.7-19.2-0.6-24.5,7.4c-20.6,31.1-46.8,57.2-77.9,77.9c-8,5.3-11.2,15.7-7.6,24.5l19,46c2.5,6.1-0.4,13.1-6.5,15.7L495.6,951
			c-2.9,1.2-6.1,1.2-9.2,0c-2.9-1.2-5.3-3.5-6.5-6.5l-19-46c-3.7-9-13.1-14.1-22.7-12.1c-36.4,7.4-73.6,7.2-109.9,0
			c-9.4-1.8-19,3.3-22.7,12.1l-19,46c-2.5,6.1-9.6,9-15.7,6.5l-50.1-20.8c-2.9-1.2-5.3-3.5-6.5-6.5c-1.2-2.9-1.2-6.1,0-9.2l19-46
			c3.7-9,0.6-19.2-7.4-24.5c-31.1-20.6-57.2-46.8-77.9-77.8c-5.3-8-15.7-11.2-24.5-7.6l-46,19c-3.1,1.2-6.1,1.2-9.2,0
			c-2.9-1.2-5.3-3.5-6.5-6.5l-20.6-50.1c-1.2-2.9-1.2-6.1,0-9.2c1.2-2.9,3.5-5.3,6.5-6.5l46-19c9-3.7,13.9-13.1,12.1-22.7
			c-7.4-36.4-7.1-73.6,0-109.9c1.8-9.4-3.3-19-12.1-22.7l-46-19c-6.1-2.4-9-9.6-6.5-15.7L62,446.1c2.4-6.1,9.6-9,15.7-6.5l46,19
			c9,3.7,19.2,0.6,24.5-7.4c20.6-31.1,46.8-57.2,77.9-77.9c8-5.3,11.2-15.7,7.6-24.5l-19-46c-1.2-2.9-1.2-6.1,0-9.2
			c1.2-2.9,3.5-5.3,6.5-6.5l50.1-20.6c2.9-1.2,6.1-1.2,9.2,0c2.9,1.2,5.3,3.5,6.5,6.5l19,46c4.3,10.4,16.1,15.3,26.4,11
			c10.4-4.3,15.3-16.1,11-26.4l-19-46c-5.3-12.9-15.5-23.1-28.4-28.4c-6.5-2.7-13.3-4.1-20-4.1s-13.7,1.4-20,4.1l-50.1,20.6
			c-12.9,5.3-23.1,15.5-28.4,28.4c-5.3,12.9-5.3,27.2,0,40l12.9,31.1c-25.1,18.6-47,40.7-65.8,65.8l-31.1-12.9
			c-26.8-11-57.4,1.6-68.5,28.4L4,480.8c-11,26.8,1.6,57.4,28.4,68.5l31.1,12.9c-4.5,30.9-4.5,62.1,0,93L32.4,668
			C19.5,673.3,9.3,683.5,4,696.4c-5.3,12.9-5.3,27.2,0,40l20.6,50.1c5.3,12.9,15.5,23.1,28.4,28.4c12.9,5.3,27.2,5.3,40,0l31.1-12.9
			c18.6,25.1,40.7,47,65.8,65.8l-12.9,31.1c-5.3,12.9-5.3,27.2,0,40c5.3,12.9,15.5,23.1,28.4,28.4l50.1,20.8
			c26.8,11,57.4-1.6,68.5-28.4l12.9-31.1c30.9,4.5,62.1,4.5,93,0l12.9,31.1c5.3,12.9,15.5,23.1,28.4,28.4
			C484,993.5,498.3,993.5,511.1,988.1L511.1,988.1z M511.1,988.1"/>
	</g>
	<linearGradient id="SVGID_2_" gradientUnits="userSpaceOnUse" x1="1103.4781" y1="40.3343" x2="-253.7502" y2="1111.8304">
		<stop  offset="0" style="stop-color:#3BF2A9"/>
		<stop  offset="1" style="stop-color:#46D1EB"/>
	</linearGradient>
	<path class="st1" d="M218.9,609.9c0.6,90.3,74.4,163.3,164.5,163.3h1.2c43.9-0.4,85.2-17.8,116.1-49
		c30.9-31.3,47.6-72.7,47.4-116.7c0-11-9.2-20-20.2-20h-0.2c-11.2,0-20.2,9.2-20,20.4c0.2,33.1-12.5,64.4-35.8,88.1
		c-23.3,23.7-54.4,36.8-87.5,37h-0.8c-68,0-123.6-55.2-124-123.2c-0.4-68.4,54.8-124.4,123.2-125c11.2,0,20.2-9.2,20-20.4
		c0-11-9.2-20-20.2-20h-0.2C291.5,444.8,218.3,519.2,218.9,609.9L218.9,609.9z M218.9,609.9"/>
	<linearGradient id="SVGID_3_" gradientUnits="userSpaceOnUse" x1="1074.9641" y1="4.2165" x2="-282.2642" y2="1075.7125">
		<stop  offset="0" style="stop-color:#3BF2A9"/>
		<stop  offset="1" style="stop-color:#46D1EB"/>
	</linearGradient>
	<path class="st2" d="M724.9,0h-39.4c-24.1,0-43.7,19.6-43.7,43.7V64c-19.6,5.3-38.4,13.1-56,23.3l-14.3-14.3
		c-8.2-8.2-19.2-12.9-30.8-12.9c-11.7,0-22.7,4.5-30.9,12.9l-27.8,27.8c-8.2,8.2-12.9,19.2-12.9,30.9c0,11.6,4.5,22.7,12.9,30.9
		l14.3,14.3c-10.2,17.6-18,36.4-23.3,56h-20.2c-24.1,0-43.7,19.6-43.7,43.7v39.4c0,24.1,19.6,43.7,43.7,43.7h20.2
		c5.3,19.6,13.1,38.4,23.3,56l-14.3,14.3c-8.2,8.2-12.9,19.2-12.9,30.8c0,11.7,4.5,22.7,12.9,30.9l27.8,27.8
		c8.2,8.2,19.2,12.9,30.9,12.9c11.6,0,22.7-4.5,30.8-12.9l14.3-14.3c17.6,10.2,36.4,18,56,23.3v20.2c0,24.1,19.6,43.7,43.7,43.7
		h39.4c24.1,0,43.7-19.6,43.7-43.7v-20.2c19.6-5.3,38.4-13.1,56-23.3l14.3,14.3c8.2,8.2,19.2,12.9,30.9,12.9
		c11.6,0,22.7-4.5,30.9-12.9l27.8-27.8c17-17,17-44.7,0-61.7l-14.3-14.3c10.2-17.6,18-36.4,23.3-56h20.2c24.1,0,43.7-19.6,43.7-43.7
		v-39.4c0-24.1-19.6-43.7-43.7-43.7h-20.2c-5.3-19.6-13.1-38.4-23.3-56l14.3-14.3c17-17,17-44.8,0-61.7l-27.8-27.8
		c-8.2-8.2-19.2-12.9-30.9-12.9c-11.6,0-22.7,4.5-30.9,12.9l-14.3,14.3c-17.6-10.2-36.4-18-56-23.3V43.7C768.4,19.6,748.8,0,724.9,0
		L724.9,0z M816.2,129.5c3.5,2.3,7.4,3.5,11.2,3.5c5.3,0,10.4-2,14.3-5.9l25.5-25.5c0.8-0.8,1.6-1,2.3-1c0.6,0,1.4,0.2,2.2,1
		l27.8,27.8c1.2,1.2,1.2,3.3,0,4.5L874,159.4c-6.7,6.7-8,17.6-2.5,25.5c14.7,21.9,24.7,46.2,29.8,71.9c1.8,9.4,10.2,16.4,19.8,16.4
		h36.2c1.8,0,3.3,1.4,3.3,3.3v39.4c0,1.8-1.4,3.3-3.3,3.3h-36.2c-9.6,0-18,6.7-19.8,16.3c-5.1,25.8-15.1,50.1-29.8,71.9
		c-5.3,8-4.3,18.8,2.5,25.5l25.5,25.5c1.2,1.2,1.2,3.3,0,4.5l-27.8,27.8c-0.8,0.8-1.6,1-2.2,1c-0.6,0-1.4-0.2-2.3-1l-25.5-26
		c-6.7-6.7-17.6-8-25.5-2.5c-21.9,14.7-46.2,24.7-71.9,29.8c-9.4,1.8-16.3,10.2-16.3,19.8v36.2c0,1.8-1.4,3.3-3.3,3.3h-39.4
		c-1.8,0-3.3-1.4-3.3-3.3v-36.2c0-9.6-6.7-18-16.3-19.8c-25.8-5.1-50.1-15.1-71.9-29.8c-8-5.3-18.8-4.3-25.5,2.5l-25.5,25.5
		c-0.8,0.8-1.6,1-2.3,1c-0.6,0-1.4-0.2-2.2-1l-27.8-27.8c-0.8-0.8-1-1.6-1-2.3c0-0.6,0.2-1.4,1-2.2l25.5-25.5
		c6.7-6.7,8-17.6,2.5-25.5c-14.7-21.9-24.7-46.2-29.8-71.9c-1.8-9.4-10.2-16.3-19.8-16.3h-36.2c-1.8,0-3.3-1.4-3.3-3.3V276
		c0-1.8,1.4-3.3,3.3-3.3h36.2c9.6,0,18-6.7,19.8-16.4c5.1-25.7,15.1-50.1,29.8-71.9c5.3-8,4.3-18.8-2.5-25.5l-25.5-25.5
		c-0.8-0.8-1-1.6-1-2.2c0-0.6,0.2-1.4,1-2.2l27.8-27.8c0.8-0.8,1.6-1,2.2-1c0.6,0,1.4,0.2,2.3,1l25.5,25.5c6.7,6.7,17.6,8,25.5,2.4
		c21.9-14.7,46.2-24.7,71.9-29.8C675,97.5,682,89.1,682,79.5V43.7c0-1.8,1.4-3.3,3.3-3.3h39.4c1.8,0,3.3,1.4,3.3,3.3v36.2
		c0,9.6,6.7,18,16.3,19.8C770,104.8,794.3,114.8,816.2,129.5L816.2,129.5z M816.2,129.5"/>
	<linearGradient id="SVGID_4_" gradientUnits="userSpaceOnUse" x1="1074.8547" y1="4.0779" x2="-282.3736" y2="1075.574">
		<stop  offset="0" style="stop-color:#3BF2A9"/>
		<stop  offset="1" style="stop-color:#46D1EB"/>
	</linearGradient>
	<path class="st3" d="M585.1,295.9c0,66.2,53.9,120.1,120.2,120.1c66.2,0,120.1-53.9,120.1-120.1c0-66.2-53.9-120.1-120.1-120.1
		C639,175.7,585.1,229.7,585.1,295.9L585.1,295.9z M784.7,295.9c0,43.9-35.8,79.7-79.7,79.7c-43.9,0-79.7-35.8-79.7-79.7
		c0-43.9,35.8-79.7,79.7-79.7C749,216.2,784.7,252.1,784.7,295.9L784.7,295.9z M784.7,295.9"/>
</g>
</svg>
