<svg xmlns="http://www.w3.org/2000/svg" viewBox="0 0 749.99 1000"><defs><style>.cls-1{fill:#01579b;}.cls-2{fill:#fff;}.cls-3{opacity:0.1;isolation:isolate;}</style></defs><title>Asset 1@10x</title><g id="Layer_2" data-name="Layer 2"><g id="Capa_1" data-name="Capa 1"><path class="cls-1" d="M706.15,500c1.56-32,2.18-66.45,2.18-104.15V160.59L375,42.94V500Z"/><path class="cls-2" d="M736.1,126.19,381.93,1.19a20.76,20.76,0,0,0-13.87,0L13.9,126.19A20.85,20.85,0,0,0,0,145.84v250C0,719.36,48,837.61,365.62,997.76a20.76,20.76,0,0,0,18.76,0C702,837.61,750,719.36,750,395.84v-250A20.86,20.86,0,0,0,736.1,126.19ZM375,955.81V500H43.84c-1.55-32-2.17-66.45-2.17-104.15V160.59L375,42.94V500H706.15C694.91,730.74,633.07,824.24,375,955.81Z"/><path class="cls-2" d="M43.84,500C55.08,730.74,116.92,824.24,375,955.81V500Z"/><path class="cls-3" d="M375,875C81.18,725.2,41.67,666.57,41.67,356.7v39.14c0,309.87,39.51,410.17,333.33,560,293.82-149.8,333.33-250.1,333.33-560V356.7C708.33,666.57,668.82,725.2,375,875Z"/></g></g></svg>