<?xml version="1.0" encoding="utf-8"?>
<!-- Generator: Adobe Illustrator 23.0.0, SVG Export Plug-In . SVG Version: 6.00 Build 0)  -->
<svg version="1.1" id="Layer_1" xmlns="http://www.w3.org/2000/svg" xmlns:xlink="http://www.w3.org/1999/xlink" x="0px" y="0px"
	 viewBox="0 0 1000 1000" style="enable-background:new 0 0 1000 1000;" xml:space="preserve">
<style type="text/css">
	.st0{fill:#fff;}
</style>
<g>
	<path class="st0" d="M515.6,992.6c-7.2,0-13.9-4.8-15.9-12.1c-2.3-8.7,2.9-17.8,11.6-20.1c4.2-1.1,8.1-2.8,11.8-5
		c7.9-4.5,17.9-1.8,22.4,5.9c4.6,7.9,1.9,17.9-5.9,22.4c-6.2,3.6-12.8,6.4-19.7,8.2C518.4,992.4,517.1,992.6,515.6,992.6
		L515.6,992.6z M465.9,986.2c-2.8,0-5.6-0.6-8.2-2.2c-6.2-3.5-11.9-7.9-17-13c-6.5-6.3-6.5-16.8-0.1-23.1c6.4-6.4,16.7-6.5,23.1-0.1
		c3,3.1,6.5,5.6,10.3,7.8c7.8,4.5,10.6,14.5,6.1,22.4C477.1,983.2,471.6,986.2,465.9,986.2L465.9,986.2z M561.9,946.2
		c-1.5,0-2.8-0.2-4.2-0.6c-8.7-2.3-13.9-11.3-11.6-20.1c1-4.1,1.6-8.3,1.6-12.7c0-9.1,7.4-16.8,16.4-16.8c9.1,0,16.4,7,16.4,16v0.8
		c0,7.2-1,14.2-2.7,21.1C575.8,941.4,569.1,946.2,561.9,946.2L561.9,946.2z M432.9,929.5c-9.1,0-16.4-7.1-16.4-16.2h16.4l-16.4-0.1
		c0-7.4,0.9-14.4,2.6-21.1c2.2-8.7,11.2-14,20-11.7c8.7,2.2,14,11.2,11.7,19.9c-1,4.1-1.5,8.2-1.5,12.5
		C449.3,921.9,441.9,929.5,432.9,929.5L432.9,929.5z M544.4,882.4c-4.1,0-8.2-1.5-11.4-4.7c-3.1-3-6.5-5.7-10.3-7.8
		c-7.9-4.5-10.7-14.5-6.2-22.3c4.4-7.9,14.4-10.6,22.3-6.2c6.2,3.5,11.9,7.8,17.1,12.8c6.4,6.3,6.6,16.7,0.2,23.2
		C552.9,880.8,548.6,882.4,544.4,882.4L544.4,882.4z M465.3,872.7c-5.6,0-11.1-2.9-14.2-8.1c-4.6-7.8-1.9-17.9,5.8-22.4
		c6.2-3.7,12.8-6.5,19.7-8.3c8.7-2.4,17.8,2.7,20.2,11.5c2.4,8.7-2.7,17.7-11.5,20.1c-4.2,1.1-8.1,2.9-11.9,5
		C470.9,872,468.1,872.7,465.3,872.7L465.3,872.7z M465.3,872.7"/>
	<path class="st0" d="M367.3,929.2h-16.4c-9.1,0-16.4-7.3-16.4-16.3c0-9.1,7.4-16.4,16.4-16.4h16.4c9,0,16.3,7.3,16.3,16.4
		C383.6,921.9,376.3,929.2,367.3,929.2L367.3,929.2z M301.6,929.2h-16.3c-9.1,0-16.4-7.3-16.4-16.3c0-9.1,7.4-16.4,16.4-16.4h16.3
		c9.1,0,16.4,7.3,16.4,16.4C318,921.9,310.7,929.2,301.6,929.2L301.6,929.2z M236,929.2h-16.4c-9,0-16.3-7.3-16.3-16.3
		c0-9.1,7.3-16.4,16.3-16.4H236c9.1,0,16.4,7.3,16.4,16.4C252.4,921.9,245.1,929.2,236,929.2L236,929.2z M170.4,929.2H154
		c-9,0-16.4-7.3-16.4-16.3c0-9.1,7.4-16.4,16.4-16.4h16.4c9,0,16.4,7.3,16.4,16.4C186.8,921.9,179.5,929.2,170.4,929.2L170.4,929.2z
		 M104.8,929.2H88.4c-9,0-16.4-7.3-16.4-16.3c0-9.1,7.4-16.4,16.4-16.4h16.4c9,0,16.4,7.3,16.4,16.4
		C121.3,921.9,113.9,929.2,104.8,929.2L104.8,929.2z M39.2,929.2H22.8c-9.1,0-16.4-7.3-16.4-16.3c0-9.1,7.4-16.4,16.4-16.4h16.4
		c9,0,16.3,7.3,16.3,16.4C55.6,921.9,48.3,929.2,39.2,929.2L39.2,929.2z M39.2,929.2"/>
	<path class="st0" d="M974.2,929.2h-16.4c-9,0-16.3-7.3-16.3-16.3c0-9.1,7.3-16.4,16.3-16.4h16.4c9.1,0,16.4,7.3,16.4,16.4
		C990.6,921.9,983.2,929.2,974.2,929.2L974.2,929.2z M908.6,929.2h-16.4c-9,0-16.4-7.3-16.4-16.3c0-9.1,7.4-16.4,16.4-16.4h16.4
		c9,0,16.4,7.3,16.4,16.4C925,921.9,917.6,929.2,908.6,929.2L908.6,929.2z M843,929.2h-16.4c-9,0-16.4-7.3-16.4-16.3
		c0-9.1,7.4-16.4,16.4-16.4H843c9,0,16.4,7.3,16.4,16.4C859.4,921.9,852,929.2,843,929.2L843,929.2z M777.4,929.2H761
		c-9.1,0-16.4-7.3-16.4-16.3c0-9.1,7.4-16.4,16.4-16.4h16.4c9,0,16.3,7.3,16.3,16.4C793.7,921.9,786.4,929.2,777.4,929.2
		L777.4,929.2z M711.7,929.2h-16.3c-9.1,0-16.4-7.3-16.4-16.3c0-9.1,7.4-16.4,16.4-16.4h16.3c9.1,0,16.4,7.3,16.4,16.4
		C728.1,921.9,720.8,929.2,711.7,929.2L711.7,929.2z M646.1,929.2h-16.4c-9,0-16.3-7.3-16.3-16.3c0-9.1,7.3-16.4,16.3-16.4h16.4
		c9.1,0,16.4,7.3,16.4,16.4C662.5,921.9,655.2,929.2,646.1,929.2L646.1,929.2z M646.1,929.2"/>
	<path class="st0" d="M498.5,814.5c-9,0-16.4-7.4-16.4-16.4v-16.4c0-9.1,7.4-16.4,16.4-16.4s16.4,7.4,16.4,16.4V798
		C514.9,807.1,507.5,814.5,498.5,814.5L498.5,814.5z M498.5,748.9c-9,0-16.4-7.4-16.4-16.4V716c0-9,7.4-16.4,16.4-16.4
		s16.4,7.4,16.4,16.4v16.4C514.9,741.5,507.5,748.9,498.5,748.9L498.5,748.9z M498.5,748.9"/>
	<path class="st0" d="M915,18.9H82c-32.7,0-59.2,26.5-59.2,59.2v193.3c0,32.7,26.5,59.2,59.2,59.2h833c32.7,0,59.2-26.5,59.2-59.2
		V78.1C974.2,45.4,947.7,18.9,915,18.9z M178.6,232.1c-31.6,0-57.3-25.7-57.3-57.4c0-31.7,25.7-57.4,57.3-57.4
		c31.7,0,57.4,25.7,57.4,57.4C236,206.4,210.3,232.1,178.6,232.1z M564.1,166.5c-9,0-16.4-7.3-16.4-16.4c0-9.1,7.4-16.3,16.4-16.3
		c9.1,0,16.4,7.3,16.4,16.3C580.5,159.2,573.1,166.5,564.1,166.5z M596.9,215.8c-9.1,0-16.4-7.4-16.4-16.4c0-9,7.4-16.4,16.4-16.4
		c9,0,16.4,7.4,16.4,16.4C613.4,208.4,606,215.8,596.9,215.8z M629.7,166.5c-9,0-16.3-7.3-16.3-16.4c0-9.1,7.3-16.3,16.3-16.3
		c9.1,0,16.4,7.3,16.4,16.3C646.1,159.2,638.8,166.5,629.7,166.5z M662.5,215.8c-9,0-16.4-7.4-16.4-16.4c0-9,7.4-16.4,16.4-16.4
		c9,0,16.4,7.4,16.4,16.4C678.9,208.4,671.6,215.8,662.5,215.8z M695.4,166.5c-9.1,0-16.4-7.3-16.4-16.4c0-9.1,7.3-16.3,16.4-16.3
		c9,0,16.3,7.3,16.3,16.3C711.7,159.2,704.4,166.5,695.4,166.5z M728.1,215.8c-9,0-16.4-7.4-16.4-16.4c0-9,7.4-16.4,16.4-16.4
		c9.1,0,16.4,7.4,16.4,16.4C744.5,208.4,737.2,215.8,728.1,215.8z M761,166.5c-9.1,0-16.4-7.3-16.4-16.4c0-9.1,7.4-16.3,16.4-16.3
		c9,0,16.4,7.3,16.4,16.3C777.4,159.2,770,166.5,761,166.5z M793.7,215.8c-9,0-16.3-7.4-16.3-16.4c0-9,7.3-16.4,16.3-16.4
		c9.1,0,16.4,7.4,16.4,16.4C810.1,208.4,802.9,215.8,793.7,215.8z M826.6,166.5c-9,0-16.4-7.3-16.4-16.4c0-9.1,7.4-16.3,16.4-16.3
		c9,0,16.4,7.3,16.4,16.3C843,159.2,835.6,166.5,826.6,166.5z M859.4,215.8c-9.1,0-16.4-7.4-16.4-16.4c0-9,7.3-16.4,16.4-16.4
		c9,0,16.3,7.4,16.3,16.4C875.7,208.4,868.4,215.8,859.4,215.8z"/>
	<path class="st0" d="M915,371.5H82c-32.7,0-59.2,26.5-59.2,59.2V624c0,32.7,26.5,59.2,59.2,59.2h833c32.7,0,59.2-26.5,59.2-59.2
		V430.7C974.2,398.1,947.7,371.5,915,371.5z M178.6,584.8c-31.6,0-57.3-25.7-57.3-57.4c0-31.7,25.7-57.4,57.3-57.4
		c31.7,0,57.4,25.7,57.4,57.4C236,559.1,210.3,584.8,178.6,584.8z M564.1,519.2c-9,0-16.4-7.3-16.4-16.3c0-9.1,7.4-16.4,16.4-16.4
		c9.1,0,16.4,7.3,16.4,16.4C580.5,511.9,573.1,519.2,564.1,519.2z M596.9,568.4c-9.1,0-16.4-7.4-16.4-16.4c0-9,7.4-16.4,16.4-16.4
		c9,0,16.4,7.4,16.4,16.4C613.4,561,606,568.4,596.9,568.4z M629.7,519.2c-9,0-16.3-7.3-16.3-16.3c0-9.1,7.3-16.4,16.3-16.4
		c9.1,0,16.4,7.3,16.4,16.4C646.1,511.9,638.8,519.2,629.7,519.2z M662.5,568.4c-9,0-16.4-7.4-16.4-16.4c0-9,7.4-16.4,16.4-16.4
		c9,0,16.4,7.4,16.4,16.4C678.9,561,671.6,568.4,662.5,568.4z M695.4,519.2c-9.1,0-16.4-7.3-16.4-16.3c0-9.1,7.3-16.4,16.4-16.4
		c9,0,16.3,7.3,16.3,16.4C711.7,511.9,704.4,519.2,695.4,519.2z M728.1,568.4c-9,0-16.4-7.4-16.4-16.4c0-9,7.4-16.4,16.4-16.4
		c9.1,0,16.4,7.4,16.4,16.4C744.5,561,737.2,568.4,728.1,568.4z M761,519.2c-9.1,0-16.4-7.3-16.4-16.3c0-9.1,7.4-16.4,16.4-16.4
		c9,0,16.4,7.3,16.4,16.4C777.4,511.9,770,519.2,761,519.2z M793.7,568.4c-9,0-16.3-7.4-16.3-16.4c0-9,7.3-16.4,16.3-16.4
		c9.1,0,16.4,7.4,16.4,16.4C810.1,561,802.9,568.4,793.7,568.4z M826.6,519.2c-9,0-16.4-7.3-16.4-16.3c0-9.1,7.4-16.4,16.4-16.4
		c9,0,16.4,7.3,16.4,16.4C843,511.9,835.6,519.2,826.6,519.2z M859.4,568.4c-9.1,0-16.4-7.4-16.4-16.4c0-9,7.3-16.4,16.4-16.4
		c9,0,16.3,7.4,16.3,16.4C875.7,561,868.4,568.4,859.4,568.4z"/>
</g>
</svg>
