<?xml version="1.0" encoding="utf-8"?>
<!-- Generator: Adobe Illustrator 23.0.0, SVG Export Plug-In . SVG Version: 6.00 Build 0)  -->
<svg version="1.1" id="Layer_1" xmlns="http://www.w3.org/2000/svg" xmlns:xlink="http://www.w3.org/1999/xlink" x="0px" y="0px"
	 viewBox="0 0 1000 1000" style="enable-background:new 0 0 1000 1000;" xml:space="preserve">
<style type="text/css">
	.st0{fill:url(#SVGID_1_);}
	.st1{fill:url(#SVGID_2_);}
	.st2{fill:url(#SVGID_3_);}
	.st3{fill:url(#SVGID_4_);}
	.st4{fill:url(#SVGID_5_);}
	.st5{fill:url(#SVGID_6_);}
	.st6{fill:url(#SVGID_7_);}
	.st7{fill:url(#SVGID_8_);}
	.st8{fill:url(#SVGID_9_);}
	.st9{fill:url(#SVGID_10_);}
</style>
<g>
	<linearGradient id="SVGID_1_" gradientUnits="userSpaceOnUse" x1="0" y1="499.9992" x2="1000" y2="499.9992">
		<stop  offset="0" style="stop-color:#6CBFA4"/>
		<stop  offset="1" style="stop-color:#62C2CC"/>
	</linearGradient>
	<path class="st0" d="M983.3,600h-97.3l-90.1-30l-29.3-73.2v-55.1c-0.1-38.1-28.9-70.1-66.8-74.2c0-2.3,0.1-4.6,0.1-6.9v-244
		c0-7.4-4.8-13.9-11.9-16L354.8,0.7c-3.1-0.9-6.4-0.9-9.6,0l-333.3,100c-7,2.1-11.9,8.6-11.9,16v244c0,7.7,0.5,15.4,0.8,23
		c0.4,11.3,1,22.4,2,33.6c0.2,1.9,0.4,3.7,0.6,5.5C23.9,634.4,152.1,820.5,342.6,915c4.7,2.3,10.2,2.3,14.9,0
		c24.9-12.5,49-26.7,72-42.4c5.2,7.2,11.8,13.3,19.5,17.9c-16.6,19.9-20.3,47.5-9.3,71c10.9,23.5,34.5,38.5,60.4,38.5h283.3
		c3.3,0,6.5-1,9.3-2.8l95.7-63.9h95c9.2,0,16.7-7.5,16.7-16.7v-300C1000,607.5,992.5,600,983.3,600L983.3,600z M622.6,518.1
		l19.4,48.6h-96.8c35.4-63.5,54.2-134.9,54.7-207.6l66.8-20v21.6c0,3.6-0.1,7.1-0.2,10.7c-29.8,10.6-49.7,38.7-49.8,70.3v45.5
		C616.7,497.8,618.7,508.3,622.6,518.1L622.6,518.1z M383.3,633.3c0,17,6.6,33.4,18.3,45.7c-6.2,4.5-12.2,9.2-18.6,13.3l-33,21.1
		l-33-21.2C243.1,645,186.9,574.5,157.2,491.9l409-122.7c-2.3,69.9-22.9,138-59.8,197.5H450C413.2,566.7,383.3,596.5,383.3,633.3
		L383.3,633.3z M42.4,462.3c-0.1-0.8-0.3-1.7-0.4-2.5l66.2-19.8c2,10,4.3,20,7,29.8L48,489.9C45.8,480.4,44,471.2,42.4,462.3
		L42.4,462.3z M34.7,395.3l65.9-19.8c0.5,10.4,1.2,20.8,2.4,31.1l-65.8,19.7c-0.2-1.5-0.3-3-0.5-4.5C36,413.3,35.2,404.6,34.7,395.3
		L34.7,395.3z M566.7,200.9l-433.3,130V211.8l217.2-77.6l216.1,61.7V200.9z M566.7,235.7v31.9L135.6,396.9c-1-10.4-1.7-20.8-2-31.3
		L566.7,235.7z M666.7,272.4v31.9l-66.7,20v-31.9L666.7,272.4z M666.7,237.6l-66.7,20v-31.9l66.7-20V237.6z M140.3,430.3L411.5,349
		l155.2-46.6v31.9L147.1,460.1C144.5,450.3,142.1,440.4,140.3,430.3L140.3,430.3z M33.3,129.1l316.7-95l316.7,95v41.9l-66.7,20v-7.6
		c0-7.4-4.9-14-12.1-16l-233.3-66.7c-3.3-1-6.9-0.9-10.2,0.3l-233.3,83.3c-6.6,2.4-11.1,8.7-11.1,15.7v140.9l-66.7,20V129.1z
		 M350,881.3c-143.6-73.7-250.1-203.7-294.2-359l69.4-20.8c32,90.2,93.2,167.2,173.8,218.9l42,27c5.5,3.5,12.5,3.5,18,0l42-27
		l0.4-0.3c-5.9,27.7,6.6,56,30.9,70.4c-10.1,12-15.7,27.2-15.6,42.9c0,2.3,0.2,4.6,0.5,6.9C395.7,855.4,373.3,869.1,350,881.3
		L350,881.3z M778.3,966.7H500c-18.4,0-33.3-14.9-33.3-33.3c0-17.3,13.3-31.7,30.6-33c9-0.9,15.6-8.7,15.3-17.7
		c-0.4-9-7.7-16-16.7-16h-12.5c-18.4,0-33.3-14.9-33.3-33.3c0-18.4,14.9-33.3,33.3-33.3c9.2,0,16.7-7.5,16.7-16.7
		c0-9.2-7.5-16.7-16.7-16.7h-16.7c-18.4,0-33.3-14.9-33.3-33.3s14.9-33.3,33.3-33.3c9.2,0,16.7-7.5,16.7-16.7
		c0-9.2-7.5-16.7-16.7-16.7H450c-18.4,0-33.3-14.9-33.3-33.3S431.6,600,450,600h216.7c5.5,0,10.7-2.7,13.8-7.3
		c3.1-4.6,3.7-10.4,1.7-15.5l-28.6-71.4c-2.4-5.9-3.6-12.2-3.6-18.6v-45.5c0-23,18.7-41.7,41.7-41.7c23,0,41.7,18.7,41.7,41.7V500
		c0,2.1,0.4,4.2,1.2,6.2l33.3,83.3c1.8,4.5,5.6,8.1,10.2,9.6l88.6,29.5v279.1L778.3,966.7z M966.7,900H900V633.3h66.7V900z
		 M966.7,900"/>
	<linearGradient id="SVGID_2_" gradientUnits="userSpaceOnUse" x1="854.2146" y1="237.5322" x2="901.2688" y2="237.5322">
		<stop  offset="0" style="stop-color:#6CBFA4"/>
		<stop  offset="1" style="stop-color:#62C2CC"/>
	</linearGradient>
	<path class="st1" d="M877,214l-22.8,24.3c7.6,7.1,14.8,14.7,21.4,22.7l25.6-21.3C893.7,230.7,885.6,222.1,877,214L877,214z
		 M877,214"/>
	<linearGradient id="SVGID_3_" gradientUnits="userSpaceOnUse" x1="932.7479" y1="419.1" x2="966.6667" y2="419.1">
		<stop  offset="0" style="stop-color:#6CBFA4"/>
		<stop  offset="1" style="stop-color:#62C2CC"/>
	</linearGradient>
	<path class="st2" d="M966.7,420.8c0-6.5-0.2-13-0.7-19.4l-33.3,2.3c0.4,5.7,0.6,11.4,0.6,17.2c0,4.7-0.1,9.4-0.4,14.1l33.3,1.9
		C966.5,431.5,966.7,426.2,966.7,420.8L966.7,420.8z M966.7,420.8"/>
	<linearGradient id="SVGID_4_" gradientUnits="userSpaceOnUse" x1="803.7833" y1="195.4104" x2="849.7479" y2="195.4104">
		<stop  offset="0" style="stop-color:#6CBFA4"/>
		<stop  offset="1" style="stop-color:#62C2CC"/>
	</linearGradient>
	<path class="st3" d="M849.7,191.5c-9.6-7-19.5-13.3-29.9-19l-16.1,29.2c9.1,5,17.9,10.6,26.4,16.7L849.7,191.5z M849.7,191.5"/>
	<linearGradient id="SVGID_5_" gradientUnits="userSpaceOnUse" x1="921.7687" y1="486.075" x2="962.0687" y2="486.075">
		<stop  offset="0" style="stop-color:#6CBFA4"/>
		<stop  offset="1" style="stop-color:#62C2CC"/>
	</linearGradient>
	<path class="st4" d="M962.1,471.9l-32.8-6c-1.9,10.2-4.4,20.4-7.5,30.3l31.8,10C957.1,495,959.9,483.5,962.1,471.9L962.1,471.9z
		 M962.1,471.9"/>
	<linearGradient id="SVGID_6_" gradientUnits="userSpaceOnUse" x1="745.8167" y1="167.3781" x2="787.8333" y2="167.3781">
		<stop  offset="0" style="stop-color:#6CBFA4"/>
		<stop  offset="1" style="stop-color:#62C2CC"/>
	</linearGradient>
	<path class="st5" d="M787.8,157.4c-11-4.4-22.2-8-33.7-11l-8.3,32.3c10.1,2.6,20,5.8,29.7,9.7L787.8,157.4z M787.8,157.4"/>
	<linearGradient id="SVGID_7_" gradientUnits="userSpaceOnUse" x1="902.0833" y1="541.7156" x2="940.7625" y2="541.7156">
		<stop  offset="0" style="stop-color:#6CBFA4"/>
		<stop  offset="1" style="stop-color:#62C2CC"/>
	</linearGradient>
	<path class="st6" d="M902.1,541.9l29.2,16.2c3.3-6.1,6.7-12.4,9.5-18.8l-30.3-13.9C907.9,531,905.1,536.5,902.1,541.9L902.1,541.9z
		 M902.1,541.9"/>
	<linearGradient id="SVGID_8_" gradientUnits="userSpaceOnUse" x1="894.0833" y1="290.9177" x2="939.3146" y2="290.9177">
		<stop  offset="0" style="stop-color:#6CBFA4"/>
		<stop  offset="1" style="stop-color:#62C2CC"/>
	</linearGradient>
	<path class="st7" d="M894.1,286.3c5.6,8.8,10.7,17.9,15.1,27.3l30.1-14.3c-5.1-10.7-10.8-21-17.2-30.9L894.1,286.3z M894.1,286.3"
		/>
	<linearGradient id="SVGID_9_" gradientUnits="userSpaceOnUse" x1="920.8333" y1="352.3562" x2="961.4166" y2="352.3562">
		<stop  offset="0" style="stop-color:#6CBFA4"/>
		<stop  offset="1" style="stop-color:#62C2CC"/>
	</linearGradient>
	<path class="st8" d="M920.8,342.5c3.2,9.9,5.9,20,7.9,30.2l32.7-6.3c-2.3-11.6-5.2-23-8.9-34.3L920.8,342.5z M920.8,342.5"/>
	<linearGradient id="SVGID_10_" gradientUnits="userSpaceOnUse" x1="743.7979" y1="350.6021" x2="850.0007" y2="350.6021">
		<stop  offset="0" style="stop-color:#6CBFA4"/>
		<stop  offset="1" style="stop-color:#62C2CC"/>
	</linearGradient>
	<path class="st9" d="M749.8,317.9c40.5,16,67,55.2,66.9,98.8H850c0.2-57.2-34.7-108.7-87.8-129.8l-5.9-2.4l-12.4,30.9L749.8,317.9z
		 M749.8,317.9"/>
</g>
</svg>
