<svg id="Layer_1" data-name="Layer 1" xmlns="http://www.w3.org/2000/svg" xmlns:xlink="http://www.w3.org/1999/xlink" viewBox="0 0 990.52 990.49"><defs><style>.cls-1{fill:url(#linear-gradient);}</style><linearGradient id="linear-gradient" x1="4.74" y1="500" x2="995.26" y2="500" gradientUnits="userSpaceOnUse"><stop offset="0" stop-color="#5656ce"/><stop offset="1" stop-color="#62C2CC"/></linearGradient></defs><title>simple colored</title><path class="cls-1" d="M570.75,954.88l13.64,40.36h86.84l13.55-40.08A205.22,205.22,0,0,0,728.62,937l38,18.78L828,894.36l-18.77-38a208.13,208.13,0,0,0,18.19-43.82L867.45,799V712.18l-40.08-13.56a206,206,0,0,0-18.18-43.83L828,616.85l-61.4-61.39-38,18.76a205.7,205.7,0,0,0-43.84-18.17L671.23,516H584.39l-13.55,40.09A205.7,205.7,0,0,0,527,574.22l-38-18.76-61.39,61.39,18.77,37.94c-2.18,3.9-4.18,7.86-6.09,11.89l-84.12-28V619.46A144.49,144.49,0,0,0,405,563.8,63.94,63.94,0,0,0,468.05,500V417.17a47.63,47.63,0,0,0-2.64-90.79A175.16,175.16,0,0,0,315.13,182.24a44.19,44.19,0,0,0-35.29-17.76h-7a44.19,44.19,0,0,0-35.29,17.76A175.26,175.26,0,0,0,87.26,326.38a47.63,47.63,0,0,0-2.64,90.79V500c0,34.58,27.64,62.65,63,63.72a144.76,144.76,0,0,0,48.82,55.77v19.19L68.1,681.45a92.51,92.51,0,0,0-63.36,87.9v162h511.7c9.58,4.75,35.42,17.26,54.31,23.54Zm-438.2-87.45H420.12v32H132.55Zm314.84-75.2a92.48,92.48,0,0,1-27.27-65.84V693.63l54.33,18.12A60.63,60.63,0,0,1,516,769.35v130H452.07V796.92Zm78.68-82.29a111.71,111.71,0,1,1,21.86,123.71v-64.3a92.32,92.32,0,0,0-21.86-59.41Zm-59.61-86.71,29-29,33,16.35L536,606a174,174,0,0,1,50.93-21.13l8.6-2,11.8-34.9h41l11.79,34.9,8.6,2A174.33,174.33,0,0,1,719.61,606l7.52,4.63,33-16.35,29,29-16.33,33,4.64,7.53a174.77,174.77,0,0,1,21.1,50.92l2.05,8.58,34.9,11.8v41l-34.9,11.8-2.05,8.6a175.21,175.21,0,0,1-21.1,50.91l-4.64,7.53L789.14,888l-29,29-33-16.35-7.52,4.64a173.56,173.56,0,0,1-50.93,21.11l-8.6,2.06-11.79,34.88h-41l-11.78-34.88-8.6-2.06c-9.15-2.18-25.27-9.07-39-15.38v-36a143.76,143.76,0,0,0,79.87,24.46c79.29,0,143.78-64.51,143.78-143.79S707.1,611.82,627.81,611.82a144,144,0,0,0-127.19,76.91,91.87,91.87,0,0,0-16.05-7.3l-13.64-4.55c2.23-4.45,4.63-8.83,7.23-13.07l4.63-7.54ZM388.17,683v43.41a124.17,124.17,0,0,0,31.95,83.5v25.59H132.55V809.89a124.13,124.13,0,0,0,31.95-83.5V683l33.19-11.06c5.9,38.25,38.77,67.71,78.64,67.71s72.75-29.46,78.65-67.71ZM436.1,420.1V445a62.61,62.61,0,0,0-16-6.62V420.1Zm-19,109a143.49,143.49,0,0,0,3-29.13v-27.5a31.76,31.76,0,0,1-3,56.63ZM272.83,196.44h7a12.49,12.49,0,0,1,12.47,12.48,13.13,13.13,0,0,1-.35,3l-12.11,48.4h-7L260.73,212a12.51,12.51,0,0,1,12.1-15.53Zm-113.47,57.4,22.79,45.6,28.59-14.3-25.66-51.3A143.06,143.06,0,0,1,229.27,216c.19,1.22.14,2.47.45,3.66l18.18,72.59h56.88L323,219.67c.29-1.18.24-2.41.44-3.63a143,143,0,0,1,44.19,17.8L342,285.16l28.58,14.3,22.82-45.62a143.08,143.08,0,0,1,39.07,70.42H120.26a143.25,143.25,0,0,1,39.1-70.42ZM100.6,356.2H452.07a16,16,0,1,1,0,31.95H100.6a16,16,0,1,1,0-31.95Zm32,82.15a63.33,63.33,0,0,0-16,6.62V420.1h16Zm-16,61.63a31.83,31.83,0,0,1,16-27.5V500a143.49,143.49,0,0,0,3,29.13,32,32,0,0,1-19-29.13Zm47.93,0V420.1H388.17V500a111.84,111.84,0,1,1-223.67,0ZM276.33,643.77a142.61,142.61,0,0,0,47.93-8.39v24.36a47.93,47.93,0,1,1-95.85,0V635.38a142.6,142.6,0,0,0,47.92,8.39ZM36.69,769.35a60.63,60.63,0,0,1,41.53-57.6l54.33-18.12v32.76a92.48,92.48,0,0,1-27.27,65.84l-4.68,4.69V899.39H36.69ZM931.32,53.5A192.8,192.8,0,0,0,781.52,6C697.41,15.35,627,82.69,614.18,166c-11,70.88,17.72,141.37,74.82,184,1,.75,1.83,1.79,2.78,2.64a47.54,47.54,0,0,0,15.91,80.52v2.93a95.86,95.86,0,1,0,191.71,0v-2.93a47.53,47.53,0,0,0,15.84-80.58c.73-.63,1.37-1.46,2.15-2a191.56,191.56,0,0,0,13.93-297ZM803.55,500a64,64,0,0,1-63.91-63.9H867.45a64,64,0,0,1-63.9,63.9Zm79.88-95.85H723.67a16,16,0,1,1,0-32H883.43a16,16,0,0,1,0,32ZM755.62,180.46h-16a16,16,0,1,1,16-16Zm63.9,159.76H787.57V212.41h31.95Zm78.89-15.4a71.62,71.62,0,0,0-14.71,15.43l-.27,0h-32V212.41h16a47.93,47.93,0,1,0-47.93-47.93v16H787.57v-16a47.93,47.93,0,1,0-47.93,47.93h16V340.22h-32c-.14,0-.29.06-.43.06a74.84,74.84,0,0,0-15.15-15.88,160.28,160.28,0,0,1-62.32-153.47c10.7-69.36,69.28-125.38,139.31-133.22,46.17-5.15,90.6,8.91,124.93,39.61a160,160,0,0,1,53.3,119.12c0,51.11-23.65,97.91-64.9,128.38ZM851.47,180.46v-16a16,16,0,1,1,16,16ZM308.29,771.58h63.9v31.95h-63.9Zm0,0" transform="translate(-4.74 -4.76)"/></svg>