<?xml version="1.0" encoding="utf-8"?>
<!-- Generator: Adobe Illustrator 23.0.0, SVG Export Plug-In . SVG Version: 6.00 Build 0)  -->
<svg version="1.1" id="Capa_1" xmlns="http://www.w3.org/2000/svg" xmlns:xlink="http://www.w3.org/1999/xlink" x="0px" y="0px"
	 viewBox="-293 -103 1000 1000" style="enable-background:new -293 -103 1000 1000;" xml:space="preserve">
<style type="text/css">
	.st0{fill:url(#SVGID_1_);}
	.st1{fill:url(#SVGID_2_);}
	.st2{fill:url(#SVGID_3_);}
	.st3{fill:url(#SVGID_4_);}
	.st4{fill:url(#SVGID_5_);}
	.st5{fill:url(#SVGID_6_);}
	.st6{fill:url(#SVGID_7_);}
	.st7{fill:url(#SVGID_8_);}
	.st8{fill:url(#SVGID_9_);}
	.st9{fill:url(#SVGID_10_);}
	.st10{fill:url(#SVGID_11_);}
	.st11{fill:url(#SVGID_12_);}
</style>
<g>
	<linearGradient id="SVGID_1_" gradientUnits="userSpaceOnUse" x1="190.4453" y1="1064.1375" x2="294.1933" y2="-145.1224">
		<stop  offset="0" style="stop-color:#6CBFA4"/>
		<stop  offset="1" style="stop-color:#62C2CC"/>
	</linearGradient>
	<path class="st0" d="M697.5,854.9c0,10.9,0,21.7,0,32.6c-327,0-654,0-980.9,0c0-10.9,0-21.7,0-32.6c32.4,0,64.9,0,97.9,0
		c0-5.2,0-9,0-12.7c0-64.8-0.1-129.6,0-194.4c0.1-44.8,9.2-87.7,32.4-126.4C-103.6,439-30.3,398,65.6,397c3.2,0,6.5,0,9.7,0
		c0.3-0.8,0.6-1.7,0.9-2.5c-2-1.6-4.2-3-6-4.7c-27.5-26.8-45.7-58.9-53.9-96.3c-1.8-8.4-4.5-12.6-13.4-11.2
		c-1.8,0.3-3.8-0.1-5.7-0.3c-28.5-2.7-49.4-17-61.2-42.8c-11.7-25.4-10.9-52.2,7.9-72.9c14.1-15.5,21-31.2,21.2-51.2
		c0-1.6,0.3-3.2,0.6-4.7C-16.7,21,34.1-42,118.6-76.1c21.9-8.8,46.1-11.7,69.2-17.3c12.8,0,25.5,0,38.3,0c3.1,0.6,6.2,1.4,9.3,1.8
		c58.5,7.4,108.4,32.1,149,74.9c41.6,43.9,63.4,96.4,67.4,156.6c0.3,4.3,3.2,9.6,6.5,12.5c35.3,30.7,35.4,83.1-0.5,113.1
		c-4.5,3.7-5.7,7.4-5.9,12.9c-0.5,13.7,0.2,27.8-3.1,40.8c-10,38.9-40.7,61.5-83,60.9c-13.8-0.2-20.3,6.9-28.6,16.8
		c6.4,0,11.1-0.1,15.9,0c82.1,1.7,148.6,34.6,198.2,100.3c33.5,44.4,47.9,95.2,48.1,150.4c0.1,65.1,0,130.3,0,195.4
		c0,3.7,0,7.4,0,11.8C633.1,854.9,665.3,854.9,697.5,854.9z M-70.9,854.2c185.8,0,370.5,0,555.7,0c0-3.5,0-6.3,0-9.1
		c0-66.1,0.1-132.2,0-198.2c0-33.5-20-53.7-53.7-53.7c-149.4-0.1-298.8-0.1-448.2,0c-34.1,0-53.8,20.3-53.8,54.5
		c-0.1,65.8,0,131.5,0,197.3C-70.9,847.8-70.9,850.6-70.9,854.2z M207.5,348.3c2.6-0.2,4.4-0.4,6.3-0.4c38.6,0,77.2-0.1,115.9,0.1
		c5.7,0,9.8-1.3,12.4-6.6c6.7-13.7,14.6-26.9,20-41.1c11.8-30.6,7.8-63,7.9-94.7c0-1.9-4.7-5.1-7.5-5.5c-13.9-1.8-28-2.4-41.8-4.3
		c-40.7-5.7-80.2-16-115.4-37.8c-16.5-10.2-31.4-23.3-47.2-35.2c-26,35.9-63.6,54.3-108.2,59.8c-5.9,0.7-6.2,4-6.2,8.5
		c0.1,15.3-0.8,30.7,0.3,45.9c1.5,20.3,1.6,41.3,7.3,60.5c27.8,93.8,132.5,141.1,222.2,101.4c9.8-4.3,18.8-10.3,28.2-15.6
		c-0.4-0.9-0.7-1.8-1.1-2.7c-30.8,0-61.6,0-92.9,0C207.5,369.5,207.5,359.4,207.5,348.3z M-103.5,854.4c0-4.1,0-7.5,0-11
		c0-65.1-0.5-130.2,0.4-195.3c0.2-13.9,2.8-29,8.6-41.5c15.2-32.5,43.3-46.1,78.4-46.2c39.9-0.1,79.8,0,119.7,0c3.3,0,6.6,0,11.5,0
		c-21.7-43.5-42.5-85-63.5-126.5c-0.9-1.7-4.8-3.2-6.9-2.8c-19.9,4-40.7,5.9-59.5,13.1c-86.2,33.1-137.6,109.4-138,202.3
		c-0.2,66.1-0.1,132.1,0,198.2c0,3.1,0.3,6.2,0.5,9.7C-136.1,854.4-120.6,854.4-103.5,854.4z M565.9,854.4c0.4-1.8,0.7-2.4,0.7-3
		c-0.3-74.3,1.8-148.8-1.4-223c-4.5-104.7-88.7-188.7-192.9-197.4c-6.6-0.5-9.5,1.1-12.3,6.9c-18.7,38-37.8,75.9-56.8,113.8
		c-1.2,2.4-2.1,5-3.6,8.7c4.7,0,8.2,0,11.6,0c39.3,0,78.5-0.2,117.8,0.1c8.9,0.1,18,0.6,26.5,2.9c39.2,10.7,61.8,41,61.9,82.6
		c0.2,65.7,0,131.5,0,197.2c0,3.7,0,7.4,0,11.1C534.5,854.4,550.1,854.4,565.9,854.4z M45.4,151.3c11.9-3.1,23.5-5,34.2-9.2
		c33.7-13.1,59.2-33.7,62.4-73.2c0.7-9,7.5-14.8,15.8-14.9c8.7-0.1,15.6,5.7,16.3,15.5c1.3,19,11.2,32.9,24.8,44.7
		c27.6,23.8,60.7,36.2,95.6,43.4c24.5,5,49.4,7.8,74.3,11.6C373.8,102.3,319.4,13.5,220,5.4C123.2-2.6,51,73.8,45.4,151.3z
		 M417.6,135.3C415.8,73.4,376.7-1.3,303.4-37.2C224.1-76,147-68.6,76.6-15.2C27.3,22.2,1,73.4-4.5,137.4c7.9-4.5,17.6,3.3,20.1-9.5
		c8.5-42,29.5-77,61-105.9C184-76.6,363.6-21.3,397,120.8c3.4,14.4,3.4,14.4,18.2,15C415.7,135.8,416.3,135.6,417.6,135.3z
		 M207,540.2c17.3-34.6,33.5-67,49.7-99.4c-17.1,1.8-33.5,4.8-49.9,4.8c-16.3,0-32.6-3.1-49.6-4.9
		C173.6,473.4,189.8,505.8,207,540.2z M178.8,559.5c-0.1-1.1,0.1-1.8-0.2-2.3c-20.4-41.1-40.9-82.2-61.5-123.2c-1-2-4.1-4.1-6.3-4.2
		c-7.6-0.5-15.2-0.2-24.1-0.2c2,4.2,3.3,7.3,4.8,10.3c16.5,33.1,33,66.2,49.6,99.2c11.3,22.5,11.3,22.5,36.4,20.9
		C177.7,560.1,178,559.9,178.8,559.5z M327.2,429.6c-6.6,0-12,0.6-17.3-0.1c-8.2-1.1-12.4,2-16,9.5c-18.1,37.3-36.9,74.2-55.4,111.3
		c-1.5,2.9-2.7,5.9-4.6,10c7.2,0,12.6-0.5,17.9,0.1c7.7,0.8,11.8-1.9,15.3-9.2c18.2-37.6,37.1-74.8,55.8-112.1
		C324.3,436.4,325.5,433.5,327.2,429.6z M10.4,249.2c0-27.3,0-53.6,0-80.6C-7,167-21.1,171.8-30.8,186c-9.7,14.2-10.2,29.4-1.2,44.1
		C-22.6,245.5-8.2,251.3,10.4,249.2z M403.6,249.2c18.6,2.1,33-3.7,42.4-19.1c9-14.7,8.5-29.9-1.2-44.1
		c-9.7-14.1-23.7-19.2-41.2-17.1C403.6,195.6,403.6,222,403.6,249.2z M418.7,282.4c-18-0.2-17.9-0.2-22,16.3c-0.8,3.4-1.8,6.8-3,10
		c-4.9,12.5-9.9,25-14.9,37.6C408.1,341.2,423.1,317.3,418.7,282.4z"/>
	<linearGradient id="SVGID_2_" gradientUnits="userSpaceOnUse" x1="-223.3621" y1="1028.635" x2="-119.6141" y2="-180.6249">
		<stop  offset="0" style="stop-color:#6CBFA4"/>
		<stop  offset="1" style="stop-color:#6CBFA4"/>
	</linearGradient>
	<path class="st1" d="M-184.9,381.1c10.6,0,20.6,0,31.4,0c0,10.7,0,20.9,0,31.8c-10.6,0-20.6,0-31.4,0
		C-184.9,402.4-184.9,392.4-184.9,381.1z"/>
	<linearGradient id="SVGID_3_" gradientUnits="userSpaceOnUse" x1="-234.4319" y1="1027.6852" x2="-130.6839" y2="-181.5746">
		<stop  offset="0" style="stop-color:#6CBFA4"/>
		<stop  offset="1" style="stop-color:#6CBFA4	"/>
	</linearGradient>
	<path class="st2" d="M-153.4,281.9c-10.6,0-20.7,0-31.4,0c0-10.4,0-20.6,0-31.6c10.4,0,20.6,0,31.4,0
		C-153.4,260.7-153.4,270.8-153.4,281.9z"/>
	<linearGradient id="SVGID_4_" gradientUnits="userSpaceOnUse" x1="-228.8809" y1="1028.1615" x2="-125.1328" y2="-181.0984">
		<stop  offset="0" style="stop-color:#6CBFA4"/>
		<stop  offset="1" style="stop-color:#6CBFA4"/>
	</linearGradient>
	<path class="st3" d="M-153.4,316c0,10.7,0,20.8,0,31.4c-10.6,0-20.7,0-31.5,0c0-10.3,0-20.4,0-31.4C-174.8,316-164.5,316-153.4,316
		z"/>
	<linearGradient id="SVGID_5_" gradientUnits="userSpaceOnUse" x1="495.5839" y1="1090.3167" x2="599.3319" y2="-118.9432">
		<stop  offset="0" style="stop-color:#6CBFA4"/>
		<stop  offset="1" style="stop-color:#6CBFA4"/>
	</linearGradient>
	<path class="st4" d="M598.8,86c-10.8,0-20.8,0-31.4,0c0-10.5,0-20.5,0-31.4c10.1,0,20.4,0,31.4,0C598.8,64.6,598.8,74.9,598.8,86z"
		/>
	<linearGradient id="SVGID_6_" gradientUnits="userSpaceOnUse" x1="501.3613" y1="1090.8124" x2="605.1093" y2="-118.4475">
		<stop  offset="0" style="stop-color:#6CBFA4"/>
		<stop  offset="1" style="stop-color:#6CBFA4"/>
	</linearGradient>
	<path class="st5" d="M599,119.8c0,10.9,0,20.9,0,31.5c-10.5,0-20.6,0-31.4,0c0-10.2,0-20.5,0-31.5C577.7,119.8,588,119.8,599,119.8
		z"/>
	<linearGradient id="SVGID_7_" gradientUnits="userSpaceOnUse" x1="506.6843" y1="1091.269" x2="610.4324" y2="-117.9908">
		<stop  offset="0" style="stop-color:#6CBFA4"/>
		<stop  offset="1" style="stop-color:#6CBFA4"/>
	</linearGradient>
	<path class="st6" d="M598.7,216.7c-10.5,0-20.5,0-31.2,0c0-10.6,0-20.9,0-31.7c10.3,0,20.3,0,31.2,0
		C598.7,195,598.7,205.3,598.7,216.7z"/>
	<linearGradient id="SVGID_8_" gradientUnits="userSpaceOnUse" x1="177.899" y1="1063.061" x2="281.647" y2="-146.1988">
		<stop  offset="0" style="stop-color:#6CBFA4"/>
		<stop  offset="1" style="stop-color:#6CBFA4"/>
	</linearGradient>
	<path class="st7" d="M141.8,723.7c0.2-35.9,29.6-65.1,65.5-64.8c36,0.2,65.1,29.5,64.9,65.4c-0.2,35.7-30.1,65.5-65.5,65.1
		C171,789.1,141.6,759.4,141.8,723.7z M207.8,691.6c-18.4-0.4-33.2,13.9-33.4,32.1c-0.2,17.6,14,32.4,31.7,33
		c17.8,0.6,33.2-14.3,33.4-32.3C239.7,706.5,225.7,691.9,207.8,691.6z"/>
	<linearGradient id="SVGID_9_" gradientUnits="userSpaceOnUse" x1="408.6241" y1="1082.856" x2="512.3722" y2="-126.4038">
		<stop  offset="0" style="stop-color:#6CBFA4"/>
		<stop  offset="1" style="stop-color:#6CBFA4"/>
	</linearGradient>
	<path class="st8" d="M420.4,707.7c10.6,0,20.4,0,31.1,0c0,37.9,0,75.6,0,113.9c-10.1,0-20.2,0-31.1,0
		C420.4,784.1,420.4,746.3,420.4,707.7z"/>
	<linearGradient id="SVGID_10_" gradientUnits="userSpaceOnUse" x1="399.6881" y1="1082.0894" x2="503.4362" y2="-127.1705">
		<stop  offset="0" style="stop-color:#6CBFA4"/>
		<stop  offset="1" style="stop-color:#6CBFA4"/>
	</linearGradient>
	<path class="st9" d="M451.6,674.7c-10.8,0-20.6,0-31.3,0c0-10.5,0-20.8,0-31.8c10,0,20.4,0,31.3,0
		C451.6,653.2,451.6,663.5,451.6,674.7z"/>
	<linearGradient id="SVGID_11_" gradientUnits="userSpaceOnUse" x1="73.7463" y1="1054.1252" x2="177.4944" y2="-155.1346">
		<stop  offset="0" style="stop-color:#6CBFA4"/>
		<stop  offset="1" style="stop-color:#6CBFA4"/>
	</linearGradient>
	<path class="st10" d="M93.5,266.3c0.1-28.2,22.5-50,49.2-49.2c26.6,0.8,48.2,22.9,46.8,49.2c-9,0-18.1,0.2-27.2-0.2
		c-1.8-0.1-4.2-2.4-4.9-4.3c-2.8-7.5-8.1-11.8-15.8-11.7c-7.6,0.1-13,4.3-15.5,12c-0.6,1.8-3.4,3.9-5.3,4
		C111.9,266.6,103,266.3,93.5,266.3z"/>
	<linearGradient id="SVGID_12_" gradientUnits="userSpaceOnUse" x1="203.7181" y1="1065.2761" x2="307.4661" y2="-143.9837">
		<stop  offset="0" style="stop-color:#6CBFA4"/>
		<stop  offset="1" style="stop-color:#6CBFA4"/>
	</linearGradient>
	<path class="st11" d="M224.5,266.3c-0.8-27.3,21.7-49.4,48.2-49.2c26.7,0.2,48.5,22.1,47.7,49.2c-9.1,0-18.3,0.3-27.4-0.2
		c-1.9-0.1-4.4-3-5.3-5.1c-3-7-8.2-10.8-15.4-10.8c-7.3,0-12.3,4.2-15.3,11.1c-0.9,2.1-3.4,4.8-5.4,4.9
		C242.7,266.6,233.8,266.3,224.5,266.3z"/>
</g>
</svg>
