<svg id="Layer_1" data-name="Layer 1" xmlns="http://www.w3.org/2000/svg" xmlns:xlink="http://www.w3.org/1999/xlink" viewBox="0 0 991.95 992.22"><defs><style>.cls-1{fill:url(#linear-gradient);}.cls-2{fill:url(#linear-gradient-2);}.cls-3{fill:url(#linear-gradient-3);}.cls-4{fill:url(#linear-gradient-4);}.cls-5{fill:url(#linear-gradient-5);}.cls-6{fill:url(#linear-gradient-6);}.cls-7{fill:url(#linear-gradient-7);}.cls-8{fill:url(#linear-gradient-8);}.cls-9{fill:url(#linear-gradient-9);}.cls-10{fill:url(#linear-gradient-10);}.cls-11{fill:url(#linear-gradient-11);}.cls-12{fill:url(#linear-gradient-12);}.cls-13{fill:url(#linear-gradient-13);}.cls-14{fill:url(#linear-gradient-14);}.cls-15{fill:url(#linear-gradient-15);}</style><linearGradient id="linear-gradient" x1="153.07" y1="354.47" x2="558.38" y2="354.47" gradientUnits="userSpaceOnUse"><stop offset="0" stop-color="#db6390"/><stop offset="1" stop-color="#ee7062"/></linearGradient><linearGradient id="linear-gradient-2" x1="73.99" y1="354.39" x2="634.17" y2="354.39" xlink:href="#linear-gradient"/><linearGradient id="linear-gradient-3" x1="650.64" y1="403.81" x2="914.26" y2="403.81" xlink:href="#linear-gradient"/><linearGradient id="linear-gradient-4" x1="90.47" y1="790.99" x2="749.5" y2="790.99" xlink:href="#linear-gradient"/><linearGradient id="linear-gradient-5" x1="694.56" y1="185.74" x2="842.84" y2="185.74" xlink:href="#linear-gradient"/><linearGradient id="linear-gradient-6" x1="727.52" y1="268.12" x2="842.84" y2="268.12" xlink:href="#linear-gradient"/><linearGradient id="linear-gradient-7" x1="727.52" y1="350.5" x2="842.84" y2="350.5" xlink:href="#linear-gradient"/><linearGradient id="linear-gradient-8" x1="727.52" y1="432.87" x2="842.84" y2="432.87" xlink:href="#linear-gradient"/><linearGradient id="linear-gradient-9" x1="727.52" y1="515.25" x2="842.84" y2="515.25" xlink:href="#linear-gradient"/><linearGradient id="linear-gradient-10" x1="743.99" y1="597.63" x2="842.84" y2="597.63" xlink:href="#linear-gradient"/><linearGradient id="linear-gradient-11" x1="150.87" y1="745.91" x2="595.71" y2="745.91" xlink:href="#linear-gradient"/><linearGradient id="linear-gradient-12" x1="150.87" y1="811.82" x2="661.61" y2="811.82" xlink:href="#linear-gradient"/><linearGradient id="linear-gradient-13" x1="233.24" y1="498.78" x2="463.9" y2="498.78" xlink:href="#linear-gradient"/><linearGradient id="linear-gradient-14" x1="233.24" y1="202.22" x2="463.9" y2="202.22" xlink:href="#linear-gradient"/><linearGradient id="linear-gradient-15" x1="5.51" y1="500" x2="997.46" y2="500" xlink:href="#linear-gradient"/></defs><title>transparent colored</title><path class="cls-1" d="M548.49,344.5a263.4,263.4,0,0,0-372.35-18.12c-4.94,4.94-11.53,9.88-16.47,16.47l-6.6,11.53,8.25,9.89,1.64,1.65C260.17,473,426.58,479.6,533.67,382.39c4.94-4.94,11.53-9.88,16.48-16.47l8.23-11.54Zm-227.36,9.88a33,33,0,1,1,33,32.95,33,33,0,0,1-33-32.95Zm11.53-62.6c-34.6,11.53-52.71,47.78-42.84,82.37,6.6,19.78,21.42,36.24,42.84,42.84-51.08-4.94-100.51-26.36-138.39-62.61,39.54-36.25,87.31-57.66,138.39-62.6ZM375.5,417c34.6-11.53,52.73-47.78,42.84-82.38-6.59-19.77-21.43-36.24-42.84-42.83,51.08,4.94,100.5,26.35,138.39,62.6C474.35,390.63,426.58,412.05,375.5,417Zm0,0" transform="translate(-5.51 -3.89)"/><path class="cls-2" d="M354.09,74.3C199.21,74.3,74,199.51,74,354.38s125.22,280.09,280.1,280.09S634.17,509.25,634.17,354.38,509,74.3,354.09,74.3Zm0,527.22A247.14,247.14,0,1,1,601.21,354.38,246.8,246.8,0,0,1,354.09,601.52Zm0,0" transform="translate(-5.51 -3.89)"/><path class="cls-3" d="M914.26,716.85V173.16c0-46.14-36.25-82.39-82.38-82.39H650.64v33H831.88c28,0,49.43,21.41,49.43,49.43V716.85Zm0,0" transform="translate(-5.51 -3.89)"/><path class="cls-4" d="M90.47,667.42V832.18c0,46.13,36.25,82.38,82.38,82.38H749.5V881.61H172.85c-28,0-49.43-21.43-49.43-49.43V667.42Zm0,0" transform="translate(-5.51 -3.89)"/><rect class="cls-5" x="694.56" y="169.27" width="148.28" height="32.95"/><rect class="cls-6" x="727.52" y="251.64" width="115.32" height="32.95"/><rect class="cls-7" x="727.52" y="334.02" width="115.32" height="32.96"/><rect class="cls-8" x="727.52" y="416.39" width="115.32" height="32.96"/><rect class="cls-9" x="727.52" y="498.78" width="115.32" height="32.95"/><rect class="cls-10" x="743.99" y="581.16" width="98.85" height="32.95"/><rect class="cls-11" x="150.87" y="729.44" width="444.84" height="32.95"/><rect class="cls-12" x="150.87" y="795.34" width="510.74" height="32.95"/><rect class="cls-13" x="233.24" y="482.3" width="230.66" height="32.95"/><rect class="cls-14" x="233.24" y="185.74" width="230.66" height="32.96"/><path class="cls-15" d="M803.86,698.72Q789,683.9,769.26,683.9H757.74L639.11,550.44c108.74-158.17,70.84-374-87.32-484.38S176.14-3.14,67.4,153.38s-70.84,374,87.33,484.38a346.2,346.2,0,0,0,413.54-13.18L683.6,754.74v13.19c0,13.17,4.94,26.35,14.83,34.59L869.77,973.87c29.65,29.65,75.79,29.65,105.45,0s29.66-75.79,0-105.44ZM41.05,354.38c0-173,140-313,313-313s313,140,313,313-140,313-313,313-313-140-313-313ZM593,604.81c8.23-8.24,18.11-18.12,24.71-26.36L726.43,700.38l-26.36,24.71ZM922.49,964c-11.53,0-21.41-4.94-29.66-11.54L721.49,781.1a14.91,14.91,0,0,1-4.94-11.53V756.39l39.54-39.54h13.17a15,15,0,0,1,11.54,4.94L952.15,893.14a41.74,41.74,0,0,1,0,59.3C943.91,959,932.37,964,922.49,964Zm0,0" transform="translate(-5.51 -3.89)"/></svg>