<?xml version="1.0" encoding="utf-8"?>
<!-- Generator: Adobe Illustrator 23.0.0, SVG Export Plug-In . SVG Version: 6.00 Build 0)  -->
<svg version="1.1" id="Layer_1" xmlns="http://www.w3.org/2000/svg" xmlns:xlink="http://www.w3.org/1999/xlink" x="0px" y="0px"
	 viewBox="0 0 1000 1000" style="enable-background:new 0 0 1000 1000;" xml:space="preserve">
<style type="text/css">
	.st0{fill:#fff;}
</style>
<g>
	<path class="st0" d="M7.3,403.3v193.5c0,16.1,5.1,30.7,13.7,42.8h958c8.6-12.1,13.7-26.8,13.7-42.8V403.3
		c0-16.1-5.1-30.7-13.7-42.8H21C12.4,372.5,7.3,387.3,7.3,403.3L7.3,403.3z M861.4,508.2c9.1,0,16.3,7.4,16.3,16.4
		c0,9.1-7.3,16.4-16.3,16.4c-9.1,0-16.4-7.4-16.4-16.4C844.9,515.6,852.3,508.2,861.4,508.2L861.4,508.2z M828.5,459
		c9.1,0,16.4,7.3,16.4,16.3c0,9.1-7.4,16.4-16.4,16.4c-9.1,0-16.4-7.4-16.4-16.4C812,466.3,819.4,459,828.5,459L828.5,459z
		 M795.6,508.2c9.1,0,16.4,7.4,16.4,16.4c0,9.1-7.4,16.4-16.4,16.4c-9.1,0-16.3-7.4-16.3-16.4C779.2,515.6,786.5,508.2,795.6,508.2
		L795.6,508.2z M762.8,459c9.1,0,16.4,7.3,16.4,16.3c0,9.1-7.4,16.4-16.4,16.4c-9.1,0-16.4-7.4-16.4-16.4
		C746.4,466.3,753.7,459,762.8,459L762.8,459z M729.9,508.2c9.1,0,16.4,7.4,16.4,16.4c0,9.1-7.4,16.4-16.4,16.4
		c-9.1,0-16.4-7.4-16.4-16.4C713.5,515.6,720.9,508.2,729.9,508.2L729.9,508.2z M697.1,459c9.1,0,16.3,7.3,16.3,16.3
		c0,9.1-7.3,16.4-16.3,16.4c-9.1,0-16.4-7.4-16.4-16.4C680.7,466.3,688.1,459,697.1,459L697.1,459z M664.2,508.2
		c9.1,0,16.4,7.4,16.4,16.4c0,9.1-7.4,16.4-16.4,16.4c-9.1,0-16.4-7.4-16.4-16.4C647.8,515.6,655.2,508.2,664.2,508.2L664.2,508.2z
		 M631.3,459c9.1,0,16.4,7.3,16.4,16.3c0,9.1-7.4,16.4-16.4,16.4c-9.1,0-16.3-7.4-16.3-16.4C615,466.3,622.3,459,631.3,459
		L631.3,459z M598.6,508.2c9.1,0,16.4,7.4,16.4,16.4c0,9.1-7.4,16.4-16.4,16.4c-9.1,0-16.4-7.4-16.4-16.4
		C582.1,515.6,589.5,508.2,598.6,508.2L598.6,508.2z M565.7,459c9.1,0,16.4,7.3,16.4,16.3c0,9.1-7.4,16.4-16.4,16.4
		c-9.1,0-16.4-7.4-16.4-16.4C549.2,466.3,556.6,459,565.7,459L565.7,459z M179.7,426.1c40.8,0,73.9,33.1,73.9,73.9
		c0,40.7-33.1,73.8-73.9,73.8c-40.7,0-73.8-33.1-73.8-73.8C105.9,459.2,139,426.1,179.7,426.1L179.7,426.1z M179.7,426.1"/>
	<path class="st0" d="M979,327.5c8.6-12.1,13.7-26.9,13.7-42.8V91.2c0-41.8-33.9-75.7-75.7-75.7H83c-41.8,0-75.7,33.9-75.7,75.7
		v193.5c0,16,5.1,30.6,13.7,42.8H979z M861.4,196.2c9.1,0,16.3,7.4,16.3,16.4c0,9.1-7.3,16.3-16.3,16.3c-9.1,0-16.4-7.3-16.4-16.3
		C844.9,203.6,852.3,196.2,861.4,196.2L861.4,196.2z M828.5,146.9c9.1,0,16.4,7.4,16.4,16.4c0,9.1-7.4,16.4-16.4,16.4
		c-9.1,0-16.4-7.4-16.4-16.4C812,154.3,819.4,146.9,828.5,146.9L828.5,146.9z M795.6,196.2c9.1,0,16.4,7.4,16.4,16.4
		c0,9.1-7.4,16.3-16.4,16.3c-9.1,0-16.3-7.3-16.3-16.3C779.2,203.6,786.5,196.2,795.6,196.2L795.6,196.2z M762.8,146.9
		c9.1,0,16.4,7.4,16.4,16.4c0,9.1-7.4,16.4-16.4,16.4c-9.1,0-16.4-7.4-16.4-16.4C746.4,154.3,753.7,146.9,762.8,146.9L762.8,146.9z
		 M729.9,196.2c9.1,0,16.4,7.4,16.4,16.4c0,9.1-7.4,16.3-16.4,16.3c-9.1,0-16.4-7.3-16.4-16.3C713.5,203.6,720.9,196.2,729.9,196.2
		L729.9,196.2z M697.1,146.9c9.1,0,16.3,7.4,16.3,16.4c0,9.1-7.3,16.4-16.3,16.4c-9.1,0-16.4-7.4-16.4-16.4
		C680.7,154.3,688.1,146.9,697.1,146.9L697.1,146.9z M664.2,196.2c9.1,0,16.4,7.4,16.4,16.4c0,9.1-7.4,16.3-16.4,16.3
		c-9.1,0-16.4-7.3-16.4-16.3C647.8,203.6,655.2,196.2,664.2,196.2L664.2,196.2z M631.3,146.9c9.1,0,16.4,7.4,16.4,16.4
		c0,9.1-7.4,16.4-16.4,16.4c-9.1,0-16.3-7.4-16.3-16.4C615,154.3,622.3,146.9,631.3,146.9L631.3,146.9z M598.6,196.2
		c9.1,0,16.4,7.4,16.4,16.4c0,9.1-7.4,16.3-16.4,16.3c-9.1,0-16.4-7.3-16.4-16.3C582.1,203.6,589.5,196.2,598.6,196.2L598.6,196.2z
		 M565.7,146.9c9.1,0,16.4,7.4,16.4,16.4c0,9.1-7.4,16.4-16.4,16.4c-9.1,0-16.4-7.4-16.4-16.4C549.2,154.3,556.6,146.9,565.7,146.9
		L565.7,146.9z M179.7,114.1c40.8,0,73.9,33.1,73.9,73.8c0,40.8-33.1,73.9-73.9,73.9c-40.7,0-73.8-33.1-73.8-73.9
		C105.9,147.2,139,114.1,179.7,114.1L179.7,114.1z M179.7,114.1"/>
	<path class="st0" d="M21,672.5c-8.6,12.2-13.7,26.9-13.7,42.8v193.5c0,41.8,33.9,75.7,75.7,75.7h834c41.7,0,75.7-33.9,75.7-75.7
		V715.3c0-16-5.2-30.6-13.7-42.8H21z M179.7,885.9c-40.7,0-73.8-33.1-73.8-73.8c0-40.8,33.1-73.9,73.8-73.9
		c40.8,0,73.9,33.2,73.9,73.9C253.6,852.8,220.5,885.9,179.7,885.9L179.7,885.9z M565.7,803.8c-9.1,0-16.4-7.3-16.4-16.3
		c0-9.1,7.4-16.4,16.4-16.4c9.1,0,16.4,7.4,16.4,16.4C582.1,796.5,574.7,803.8,565.7,803.8L565.7,803.8z M598.6,853.1
		c-9.1,0-16.4-7.4-16.4-16.4c0-9.1,7.4-16.4,16.4-16.4c9.1,0,16.4,7.4,16.4,16.4C615,845.7,607.6,853.1,598.6,853.1L598.6,853.1z
		 M631.3,803.8c-9.1,0-16.3-7.3-16.3-16.3c0-9.1,7.3-16.4,16.3-16.4c9.1,0,16.4,7.4,16.4,16.4C647.8,796.5,640.4,803.8,631.3,803.8
		L631.3,803.8z M664.2,853.1c-9.1,0-16.4-7.4-16.4-16.4c0-9.1,7.4-16.4,16.4-16.4c9.1,0,16.4,7.4,16.4,16.4
		C680.7,845.7,673.3,853.1,664.2,853.1L664.2,853.1z M697.1,803.8c-9.1,0-16.4-7.3-16.4-16.3c0-9.1,7.4-16.4,16.4-16.4
		c9.1,0,16.3,7.4,16.3,16.4C713.5,796.5,706.2,803.8,697.1,803.8L697.1,803.8z M729.9,853.1c-9.1,0-16.4-7.4-16.4-16.4
		c0-9.1,7.4-16.4,16.4-16.4c9.1,0,16.4,7.4,16.4,16.4C746.4,845.7,739,853.1,729.9,853.1L729.9,853.1z M762.8,803.8
		c-9.1,0-16.4-7.3-16.4-16.3c0-9.1,7.4-16.4,16.4-16.4c9.1,0,16.4,7.4,16.4,16.4C779.2,796.5,771.9,803.8,762.8,803.8L762.8,803.8z
		 M795.6,853.1c-9.1,0-16.3-7.4-16.3-16.4c0-9.1,7.3-16.4,16.3-16.4c9.1,0,16.4,7.4,16.4,16.4C812,845.7,804.7,853.1,795.6,853.1
		L795.6,853.1z M828.5,803.8c-9.1,0-16.4-7.3-16.4-16.3c0-9.1,7.4-16.4,16.4-16.4c9.1,0,16.4,7.4,16.4,16.4
		C844.9,796.5,837.5,803.8,828.5,803.8L828.5,803.8z M861.4,853.1c-9.1,0-16.4-7.4-16.4-16.4c0-9.1,7.4-16.4,16.4-16.4
		c9.1,0,16.3,7.4,16.3,16.4C877.7,845.7,870.4,853.1,861.4,853.1L861.4,853.1z M861.4,853.1"/>
</g>
</svg>
