<svg xmlns="http://www.w3.org/2000/svg" viewBox="0 0 880.98 991.9"><defs><style>.cls-1{fill:#ededed;opacity:0.4;isolation:isolate;}.cls-2,.cls-3{fill:#fff;}.cls-3{opacity:0.7;}</style></defs><title>Asset 2@10x</title><g id="Layer_2" data-name="Layer 2"><g id="Capa_1" data-name="Capa 1"><path class="cls-1" d="M821.6,771.91H452.85V652.51c0-7.4-5.53-13.39-12.36-13.39s-12.36,6-12.36,13.39v119.4H59.38c-6.83,0-12.36,6-12.36,13.39V888.36c0,7.4,5.53,13.39,12.36,13.39s12.36-6,12.36-13.39V798.7h737.5v89.66c0,7.4,5.53,13.39,12.36,13.39s12.36-6,12.36-13.39V785.3C834,777.9,828.43,771.91,821.6,771.91Z"/><path class="cls-2" d="M776.47,79a696.65,696.65,0,0,0-78-34.73c.07.63.18,1.26.2,1.91C707.28,290.78,586.74,512.34,396.32,643a12.14,12.14,0,0,1-12.15.9q24.56,17.48,50.64,32.87a12.16,12.16,0,0,0,12.31,0c199-117.19,334.61-329.89,342.94-574.49A25.38,25.38,0,0,0,776.47,79Z"/><path class="cls-3" d="M441.28,298a36.31,36.31,0,0,0-22.08,65.19v37.26a22.08,22.08,0,0,0,44.16,0V363.22A36.3,36.3,0,0,0,441.28,298Z"/><path class="cls-3" d="M441.28,112a78.83,78.83,0,0,0-78.8,78.69v57.87H520.09V190.64A78.84,78.84,0,0,0,441.28,112Z"/><path class="cls-3" d="M776.47,79A698.3,698.3,0,0,0,452.72,0c-4,0-7.93,0-11.76.12A698.53,698.53,0,0,0,105.23,91.88,25.34,25.34,0,0,0,92.52,115.1c12.54,239.28,146.75,446.5,342.29,561.66a12.16,12.16,0,0,0,12.31,0c199-117.18,334.61-329.89,342.94-574.49A25.38,25.38,0,0,0,776.47,79ZM580.8,441.42a8.58,8.58,0,0,1-8.58,8.58H310.34a8.59,8.59,0,0,1-8.58-8.58V257.09a8.59,8.59,0,0,1,8.58-8.58h8V190.64c0-67.7,55.16-122.79,123-122.79s123,55.09,123,122.79v57.87h8a8.58,8.58,0,0,1,8.58,8.58Z"/><ellipse class="cls-2" cx="58.73" cy="933.25" rx="58.73" ry="58.65"/><ellipse class="cls-2" cx="822.25" cy="933.25" rx="58.73" ry="58.65"/></g></g></svg>