<?xml version="1.0" encoding="iso-8859-1"?>
<!-- Generator: Adobe Illustrator 23.0.0, SVG Export Plug-In . SVG Version: 6.00 Build 0)  -->
<svg version="1.1" id="Capa_1" xmlns="http://www.w3.org/2000/svg" xmlns:xlink="http://www.w3.org/1999/xlink" x="0px" y="0px"
	 viewBox="-49 141 512 512" style="enable-background:new -49 141 512 512;" xml:space="preserve">
<g>
	<path style="fill:#CCCCCC;" d="M386.134,422.694c-4.711,0-8.53-3.819-8.53-8.53c0-4.711,3.819-8.53,8.53-8.53
		c32.978,0.077,59.774-26.595,59.851-59.572c0.064-27.452-18.598-51.411-45.23-58.069c-3.499-0.887-6.061-3.879-6.398-7.473
		c-2.769-30.702-28.579-54.173-59.405-54.022c-11.487-0.029-22.73,3.31-32.338,9.605c-3.937,2.587-9.226,1.493-11.813-2.444
		c-0.525-0.798-0.911-1.679-1.144-2.605c-11.639-45.651-58.082-73.223-103.733-61.583c-30.25,7.713-53.871,31.333-61.583,61.583
		c-1.148,4.569-5.783,7.342-10.352,6.194c-0.926-0.233-1.807-0.62-2.605-1.144c-9.608-6.295-20.852-9.634-32.338-9.605
		c-30.826-0.151-56.636,23.321-59.405,54.022c-0.337,3.593-2.899,6.586-6.398,7.473c-31.993,7.998-51.446,40.417-43.448,72.411
		c6.658,26.633,30.617,45.294,58.069,45.23c4.711,0,8.53,3.819,8.53,8.53c0,4.711-3.819,8.53-8.53,8.53
		c-42.4,0.05-76.813-34.282-76.862-76.683c-0.039-33.047,21.075-62.411,52.415-72.896c7.194-41.747,46.869-69.758,88.616-62.564
		c6.56,1.13,12.944,3.11,18.993,5.889c19.673-53,78.586-80.018,131.587-60.345c27.94,10.371,49.974,32.404,60.345,60.345
		c38.495-17.684,84.037-0.813,101.721,37.682c2.779,6.049,4.758,12.433,5.889,18.993c40.21,13.453,61.9,56.954,48.448,97.164
		C448.53,401.613,419.175,422.725,386.134,422.694z"/>
	<g>
		<path style="fill:#CCCCCC;" d="M352.632,295.486H63.501c-11.345,0-20.547,9.202-20.547,20.548v67.087
			c0,11.345,9.202,20.547,20.547,20.547h289.13c11.345,0,20.547-9.202,20.547-20.547v-67.087
			C373.179,304.689,363.976,295.486,352.632,295.486z M97.023,369.498c-10.982,0-19.9-8.925-19.9-19.907
			c0-11.01,8.918-19.935,19.9-19.935c11.01,0,19.935,8.925,19.935,19.935C116.958,360.574,108.034,369.498,97.023,369.498z
			 M230.834,346.73c-3.139,0-5.701-2.534-5.701-5.701c0-3.146,2.562-5.672,5.701-5.672c3.146,0,5.701,2.526,5.701,5.672
			C236.535,344.197,233.98,346.73,230.834,346.73z M242.236,363.826c-3.146,0-5.701-2.555-5.701-5.701
			c0-3.139,2.555-5.701,5.701-5.701c3.139,0,5.701,2.562,5.701,5.701C247.937,361.271,245.375,363.826,242.236,363.826z
			 M253.602,346.73c-3.139,0-5.665-2.534-5.665-5.701c0-3.146,2.526-5.672,5.665-5.672c3.174,0,5.701,2.526,5.701,5.672
			C259.303,344.197,256.777,346.73,253.602,346.73z M265.004,363.826c-3.139,0-5.701-2.555-5.701-5.701
			c0-3.139,2.562-5.701,5.701-5.701c3.139,0,5.701,2.562,5.701,5.701C270.705,361.271,268.143,363.826,265.004,363.826z
			 M276.406,346.73c-3.174,0-5.701-2.534-5.701-5.701c0-3.146,2.527-5.672,5.701-5.672c3.139,0,5.665,2.526,5.665,5.672
			C282.071,344.197,279.545,346.73,276.406,346.73z M287.772,363.826c-3.139,0-5.701-2.555-5.701-5.701
			c0-3.139,2.562-5.701,5.701-5.701c3.146,0,5.701,2.562,5.701,5.701C293.473,361.271,290.918,363.826,287.772,363.826z
			 M299.174,346.73c-3.146,0-5.701-2.534-5.701-5.701c0-3.146,2.555-5.672,5.701-5.672c3.139,0,5.701,2.526,5.701,5.672
			C304.875,344.197,302.313,346.73,299.174,346.73z M310.54,363.826c-3.139,0-5.665-2.555-5.665-5.701
			c0-3.139,2.527-5.701,5.665-5.701c3.174,0,5.701,2.562,5.701,5.701C316.241,361.271,313.714,363.826,310.54,363.826z
			 M321.942,346.73c-3.139,0-5.701-2.534-5.701-5.701c0-3.146,2.562-5.672,5.701-5.672c3.139,0,5.701,2.526,5.701,5.672
			C327.643,344.197,325.08,346.73,321.942,346.73z M333.344,363.826c-3.174,0-5.701-2.555-5.701-5.701
			c0-3.139,2.526-5.701,5.701-5.701c3.139,0,5.665,2.562,5.665,5.701C339.009,361.271,336.483,363.826,333.344,363.826z"/>
		<path style="fill:#CCCCCC;" d="M352.632,417.902H63.501c-11.345,0-20.547,9.203-20.547,20.541v67.087
			c0,11.345,9.202,20.548,20.547,20.548h289.13c11.345,0,20.547-9.203,20.547-20.548v-67.087
			C373.179,427.105,363.976,417.902,352.632,417.902z M97.023,491.936c-10.982,0-19.9-8.925-19.9-19.935
			c0-11.01,8.918-19.936,19.9-19.936c11.01,0,19.935,8.925,19.935,19.936C116.958,483.011,108.034,491.936,97.023,491.936z
			 M230.834,469.139c-3.139,0-5.701-2.534-5.701-5.672c0-3.167,2.562-5.701,5.701-5.701c3.146,0,5.701,2.534,5.701,5.701
			C236.535,466.606,233.98,469.139,230.834,469.139z M242.236,486.235c-3.146,0-5.701-2.555-5.701-5.701
			c0-3.139,2.555-5.694,5.701-5.694c3.139,0,5.701,2.555,5.701,5.694C247.937,483.68,245.375,486.235,242.236,486.235z
			 M253.602,469.139c-3.139,0-5.665-2.534-5.665-5.672c0-3.167,2.526-5.701,5.665-5.701c3.174,0,5.701,2.534,5.701,5.701
			C259.303,466.606,256.777,469.139,253.602,469.139z M265.004,486.235c-3.139,0-5.701-2.555-5.701-5.701
			c0-3.139,2.562-5.694,5.701-5.694c3.139,0,5.701,2.555,5.701,5.694C270.705,483.68,268.143,486.235,265.004,486.235z
			 M276.406,469.139c-3.174,0-5.701-2.534-5.701-5.672c0-3.167,2.527-5.701,5.701-5.701c3.139,0,5.665,2.534,5.665,5.701
			C282.071,466.606,279.545,469.139,276.406,469.139z M287.772,486.235c-3.139,0-5.701-2.555-5.701-5.701
			c0-3.139,2.562-5.694,5.701-5.694c3.146,0,5.701,2.555,5.701,5.694C293.473,483.68,290.918,486.235,287.772,486.235z
			 M299.174,469.139c-3.146,0-5.701-2.534-5.701-5.672c0-3.167,2.555-5.701,5.701-5.701c3.139,0,5.701,2.534,5.701,5.701
			C304.875,466.606,302.313,469.139,299.174,469.139z M310.54,486.235c-3.139,0-5.665-2.555-5.665-5.701
			c0-3.139,2.527-5.694,5.665-5.694c3.174,0,5.701,2.555,5.701,5.694C316.241,483.68,313.714,486.235,310.54,486.235z
			 M321.942,469.139c-3.139,0-5.701-2.534-5.701-5.672c0-3.167,2.562-5.701,5.701-5.701c3.139,0,5.701,2.534,5.701,5.701
			C327.643,466.606,325.08,469.139,321.942,469.139z M333.344,486.235c-3.174,0-5.701-2.555-5.701-5.701
			c0-3.139,2.526-5.694,5.701-5.694c3.139,0,5.665,2.555,5.665,5.694C339.009,483.68,336.483,486.235,333.344,486.235z"/>
		<path style="fill:#CCCCCC;" d="M352.632,540.278H63.501c-11.345,0-20.547,9.203-20.547,20.541v67.087
			c0,11.345,9.202,20.548,20.547,20.548h289.13c11.345,0,20.547-9.203,20.547-20.548v-67.087
			C373.179,549.481,363.976,540.278,352.632,540.278z M97.023,614.312c-10.982,0-19.9-8.925-19.9-19.935
			c0-11.01,8.918-19.936,19.9-19.936c11.01,0,19.935,8.925,19.935,19.936C116.958,605.386,108.034,614.312,97.023,614.312z
			 M230.834,591.515c-3.139,0-5.701-2.534-5.701-5.672c0-3.167,2.562-5.701,5.701-5.701c3.146,0,5.701,2.534,5.701,5.701
			C236.535,588.981,233.98,591.515,230.834,591.515z M242.236,608.611c-3.146,0-5.701-2.555-5.701-5.701
			c0-3.139,2.555-5.694,5.701-5.694c3.139,0,5.701,2.555,5.701,5.694C247.937,606.056,245.375,608.611,242.236,608.611z
			 M253.602,591.515c-3.139,0-5.665-2.534-5.665-5.672c0-3.167,2.526-5.701,5.665-5.701c3.174,0,5.701,2.534,5.701,5.701
			C259.303,588.981,256.777,591.515,253.602,591.515z M265.004,608.611c-3.139,0-5.701-2.555-5.701-5.701
			c0-3.139,2.562-5.694,5.701-5.694c3.139,0,5.701,2.555,5.701,5.694C270.705,606.056,268.143,608.611,265.004,608.611z
			 M276.406,591.515c-3.174,0-5.701-2.534-5.701-5.672c0-3.167,2.527-5.701,5.701-5.701c3.139,0,5.665,2.534,5.665,5.701
			C282.071,588.981,279.545,591.515,276.406,591.515z M287.772,608.611c-3.139,0-5.701-2.555-5.701-5.701
			c0-3.139,2.562-5.694,5.701-5.694c3.146,0,5.701,2.555,5.701,5.694C293.473,606.056,290.918,608.611,287.772,608.611z
			 M299.174,591.515c-3.146,0-5.701-2.534-5.701-5.672c0-3.167,2.555-5.701,5.701-5.701c3.139,0,5.701,2.534,5.701,5.701
			C304.875,588.981,302.313,591.515,299.174,591.515z M310.54,608.611c-3.139,0-5.665-2.555-5.665-5.701
			c0-3.139,2.527-5.694,5.665-5.694c3.174,0,5.701,2.555,5.701,5.694C316.241,606.056,313.714,608.611,310.54,608.611z
			 M321.942,591.515c-3.139,0-5.701-2.534-5.701-5.672c0-3.167,2.562-5.701,5.701-5.701c3.139,0,5.701,2.534,5.701,5.701
			C327.643,588.981,325.08,591.515,321.942,591.515z M333.344,608.611c-3.174,0-5.701-2.555-5.701-5.701
			c0-3.139,2.526-5.694,5.701-5.694c3.139,0,5.665,2.555,5.665,5.694C339.009,606.056,336.483,608.611,333.344,608.611z"/>
	</g>
</g>
</svg>
