<?xml version="1.0" encoding="utf-8"?>
<!-- Generator: Adobe Illustrator 23.0.0, SVG Export Plug-In . SVG Version: 6.00 Build 0)  -->
<svg version="1.1" id="Layer_1" xmlns="http://www.w3.org/2000/svg" xmlns:xlink="http://www.w3.org/1999/xlink" x="0px" y="0px"
	 viewBox="0 0 1000 1000" style="enable-background:new 0 0 1000 1000;" xml:space="preserve">
<style type="text/css">
	.st0{fill:#BCBCBC;}
</style>
<g>
	<path class="st0" d="M965.5-1.6h-931C15.4-1.6,0,13.8,0,32.9v206.9c0,19.1,15.4,34.5,34.5,34.5h931c19,0,34.5-15.4,34.5-34.5V32.9
		C1000,13.8,984.6-1.6,965.5-1.6z M86.2,222.5H51.7v-69h34.5V222.5z M86.2,119.1H51.7v-69h34.5V119.1z M155.2,222.5h-34.5v-69h34.5
		V222.5z M155.2,119.1h-34.5v-69h34.5V119.1z M224.1,222.5h-34.5v-69h34.5V222.5z M224.1,119.1h-34.5v-69h34.5V119.1z M293.1,222.5
		h-34.5v-69h34.5V222.5z M293.1,119.1h-34.5v-69h34.5V119.1z M362.1,222.5h-34.5v-69h34.5V222.5z M362.1,119.1h-34.5v-69h34.5V119.1
		z M431,222.5h-34.5v-69H431V222.5z M431,119.1h-34.5v-69H431V119.1z M620.7,170.8c-19,0-34.5-15.4-34.5-34.5
		c0-19,15.4-34.5,34.5-34.5c19,0,34.5,15.4,34.5,34.5C655.2,155.4,639.7,170.8,620.7,170.8z M758.6,170.8c-19,0-34.5-15.4-34.5-34.5
		c0-19,15.4-34.5,34.5-34.5c19,0,34.5,15.4,34.5,34.5C793.1,155.4,777.7,170.8,758.6,170.8z M896.6,170.8c-19,0-34.5-15.4-34.5-34.5
		c0-19,15.4-34.5,34.5-34.5c19,0,34.5,15.4,34.5,34.5C931,155.4,915.6,170.8,896.6,170.8z"/>
	<path class="st0" d="M758.6,343.2L603.4,498.4h86.2v155.2h137.9V498.4h86.2L758.6,343.2z M758.6,343.2"/>
	<path class="st0" d="M241.4,653.6l155.2-155.2h-86.2V343.2H172.4v155.2H86.2L241.4,653.6z M241.4,653.6"/>
	<path class="st0" d="M965.5,722.5h-931C15.4,722.5,0,738,0,757v206.9c0,19,15.4,34.5,34.5,34.5h931c19,0,34.5-15.4,34.5-34.5V757
		C1000,738,984.6,722.5,965.5,722.5z M86.2,946.7H51.7v-69h34.5V946.7z M86.2,843.2H51.7v-69h34.5V843.2z M155.2,946.7h-34.5v-69
		h34.5V946.7z M155.2,843.2h-34.5v-69h34.5V843.2z M224.1,946.7h-34.5v-69h34.5V946.7z M224.1,843.2h-34.5v-69h34.5V843.2z
		 M293.1,946.7h-34.5v-69h34.5V946.7z M293.1,843.2h-34.5v-69h34.5V843.2z M362.1,946.7h-34.5v-69h34.5V946.7z M362.1,843.2h-34.5
		v-69h34.5V843.2z M431,946.7h-34.5v-69H431V946.7z M431,843.2h-34.5v-69H431V843.2z M620.7,895c-19,0-34.5-15.4-34.5-34.5
		c0-19,15.4-34.5,34.5-34.5c19,0,34.5,15.4,34.5,34.5C655.2,879.5,639.7,895,620.7,895z M758.6,895c-19,0-34.5-15.4-34.5-34.5
		c0-19,15.4-34.5,34.5-34.5c19,0,34.5,15.4,34.5,34.5C793.1,879.5,777.7,895,758.6,895z M896.6,895c-19,0-34.5-15.4-34.5-34.5
		c0-19,15.4-34.5,34.5-34.5c19,0,34.5,15.4,34.5,34.5C931,879.5,915.6,895,896.6,895z"/>
</g>
</svg>
