<?xml version="1.0" encoding="utf-8"?>
<!-- Generator: Adobe Illustrator 23.0.0, SVG Export Plug-In . SVG Version: 6.00 Build 0)  -->
<svg version="1.1" id="Layer_1" xmlns="http://www.w3.org/2000/svg" xmlns:xlink="http://www.w3.org/1999/xlink" x="0px" y="0px"
	 viewBox="-293 2.4 1000 894.6" style="enable-background:new -293 2.4 1000 894.6;" xml:space="preserve">
<style type="text/css">
	.st0{fill:url(#SVGID_1_);}
</style>
<linearGradient id="SVGID_1_" gradientUnits="userSpaceOnUse" x1="-290.404" y1="449.7047" x2="704.404" y2="449.7047">
	<stop  offset="0" style="stop-color:#D84588"/>
	<stop  offset="1" style="stop-color:#A33D96"/>
</linearGradient>
<path class="st0" d="M699.6,20.3c-4.5-4.3-11-5.7-16.8-3.4l-963.1,374c-5.7,2.2-9.7,7.5-10.1,13.7c-0.4,6.1,2.7,11.9,8,15L-82.7,532
	l69.3,338.6c0.4,2.4,1.4,4.6,2.8,6.5c0.1,0.2,0.3,0.3,0.4,0.5c2.4,3.1,5.9,5.2,9.9,5.8c0.5,0.1,1,0.1,1.5,0.2c0.3,0,0.7,0,1,0
	c3,0,5.9-0.9,8.3-2.4c0.8-0.5,1.6-1.1,2.3-1.8c0.2-0.2,0.4-0.4,0.6-0.6l150.2-150.6c6.2-6.2,6.2-16.3,0-22.5
	c-6.2-6.2-16.3-6.2-22.5,0l-118,118.3l25.5-218.4l360.4,197.8c3.6,2,7.7,2.4,11.4,1.5c0.4-0.1,0.8-0.2,1.1-0.3
	c3.6-1.2,6.9-3.6,8.9-7.2c0.1-0.2,0.2-0.3,0.3-0.5c0.4-0.8,0.7-1.6,1-2.3L703.5,37C705.6,31.2,704.1,24.6,699.6,20.3z M-237.5,408.3
	l787.2-305.7L-69.2,503.2L-237.5,408.3z M25.8,568.1c-1.5,1.2-2.8,2.7-3.8,4.4c-0.1,0.2-0.3,0.5-0.4,0.7c-1,1.9-1.5,3.8-1.7,5.8
	l-22,188.6l-48.8-238.4l534.5-345.9L25.8,568.1z M408.1,766.8L63.7,577.7L653.7,81.7L408.1,766.8z"/>
</svg>
