<?xml version="1.0" encoding="utf-8"?>
<!-- Generator: Adobe Illustrator 23.0.0, SVG Export Plug-In . SVG Version: 6.00 Build 0)  -->
<svg version="1.1" id="Layer_1" xmlns="http://www.w3.org/2000/svg" xmlns:xlink="http://www.w3.org/1999/xlink" x="0px" y="0px"
	 viewBox="0 0 1000 918.4" style="enable-background:new 0 0 1000 918.4;" xml:space="preserve">
<style type="text/css">
	.st0{fill:#FFFFFF;}
</style>
<g>
	<path class="st0" d="M982.1,738.6H858.4V615.8c0-9.1-7.4-16.5-16.5-16.5c-9.1,0-16.5,7.4-16.5,16.5v122.8H701.8
		c-9.1,0-16.5,7.4-16.5,16.5c0,9.1,7.4,16.5,16.5,16.5h123.6v124.5c0,9.1,7.4,16.5,16.5,16.5c9.1,0,16.5-7.4,16.5-16.5V771.6h123.6
		c9.1,0,16.5-7.4,16.5-16.5C998.6,746.1,991.2,738.6,982.1,738.6L982.1,738.6z M982.1,738.6"/>
	<path class="st0" d="M695.2,484.8c24.7,7.4,47.8,19,65.9,35.4c6.6,5.8,17.3,5,23.1-1.7c5.8-6.6,4.9-17.3-1.6-23.1
		c-22.3-19.8-49.5-33.8-80-42l-9.9-2.5c-15.7-4.1-33,1.6-42.9,13.2c-36.3,41.2-82.4,44.5-131.1,44.5c-47.8,0-94-3.3-130.2-44.5
		c-10.7-12.4-27.2-17.3-42-13.2l-9.9,2.5c-68.4,18.1-122.8,70.9-142.6,139.3l-14,47.8H41.6c-3.3,0-5-1.6-5.8-2.5
		c-0.8-0.8-2.5-3.3-1.7-6.6L61.4,535c23.1-76.7,71.7-101.4,159.1-122c1.7,0,2.5-0.8,4.1-1.6c5.8,4.1,12.4,8.2,18.1,11.5
		c2.5,1.6,5,1.6,7.4,1.6c5.8,0,11.5-3.3,14.8-9.1c4.1-8.2,0.8-18.1-6.6-22.3c-48.6-24.7-84.1-96.4-84.1-169.8
		c0-66.8,53.6-120.3,120.3-120.3c19.8,0,37.9,4.9,56.1,14c-9.9,23.1-15.7,48.6-15.7,75c0,140.9,84.9,259.7,186.3,259.7
		c98.9,0,186.3-121.2,186.3-259.7c0-103-83.3-186.3-186.3-186.3c-64.3,0-121.2,33-155,82.4l-0.8-0.8c-22.3-11.5-46.2-17.3-70.9-17.3
		c-84.9,0-153.3,68.4-153.3,153.3c0,61.8,21.4,121.2,55.2,160.7c-75,19-137.7,47-166.5,141L2.8,622.4c-3.3,12.4-0.8,25.6,7.4,35.4
		c7.4,9.9,19,15.7,31.3,15.7h128.6l-11.5,38.7c-4.1,14-1.6,28.9,7.4,40.4c9.1,11.5,23.1,19,37.9,19h349.5c9.1,0,16.5-7.4,16.5-16.5
		c0-9.1-7.4-16.5-16.5-16.5H204c-4.1,0-8.2-1.6-10.7-5.8c-1.7-1.6-3.3-5.8-1.7-11.5L226.2,601c16.5-56.9,61.8-101.4,119.5-116.2
		l9.9-2.5c3.3-0.8,6.6,0.8,9.1,3.3c45.3,51.9,101.4,56.1,155.8,56.1c54.4,0,110.5-4.1,155.8-56.1c0,0,0-0.8,0.8-0.8
		c1.6-1.7,5.8-3.3,8.2-2.5L695.2,484.8z M521.3,38.8c68.4,0,126.1,45.3,145.9,107.1c-28.8,5.8-59.3-5.8-77.5-30.5
		c-5.8-7.4-15.7-9.1-23.1-3.3c-3.3,2.5-5,4.9-5.8,8.2c-0.8,0.8-0.8,1.7-1.7,2.5c-23.1,47-100.6,66.8-189.6,49.5
		C379.5,97.4,443.8,38.8,521.3,38.8L521.3,38.8z M431.5,211.1c65.9,0,120.3-20.6,148.4-59.3c20.6,18.1,46.2,28,73.4,28
		c6.6,0,14-0.8,20.6-2.5c0.8,4.9,0.8,9.1,0.8,14c0,121.2-71.7,227.5-153.3,227.5c-78.3,0-148.4-98.1-153.3-213.5
		C390.3,209.5,410.9,211.1,431.5,211.1L431.5,211.1z M431.5,211.1"/>
</g>
</svg>
