<svg id="Layer_1" data-name="Layer 1" xmlns="http://www.w3.org/2000/svg" xmlns:xlink="http://www.w3.org/1999/xlink" viewBox="0 0 993.57 992.22"><defs><style>.cls-1{fill:#fff;}.cls-2{clip-path:url(#clip-path);}</style><clipPath id="clip-path" transform="translate(-3.89 -3.89)"><rect class="cls-1" x="3.89" y="3.89" width="992.22" height="992.22"/></clipPath></defs><title>transparent</title><path class="cls-1" d="M548.49,344.5a263.4,263.4,0,0,0-372.35-18.12c-4.94,4.94-11.53,9.88-16.47,16.47l-6.6,11.53,8.25,9.89,1.64,1.65C260.17,473,426.58,479.6,533.67,382.39c4.94-4.94,11.53-9.88,16.48-16.47l8.23-11.54Zm-227.36,9.88a33,33,0,1,1,33,32.95,33,33,0,0,1-33-32.95Zm11.53-62.6c-34.6,11.53-52.71,47.78-42.84,82.37,6.6,19.78,21.42,36.24,42.84,42.84-51.08-4.94-100.51-26.36-138.39-62.61,39.54-36.25,87.31-57.66,138.39-62.6ZM375.5,417c34.6-11.53,52.73-47.78,42.84-82.38-6.59-19.77-21.43-36.24-42.84-42.83,51.08,4.94,100.5,26.35,138.39,62.6C474.35,390.63,426.58,412.05,375.5,417Zm0,0" transform="translate(-3.89 -3.89)"/><path class="cls-1" d="M354.09,74.3C199.21,74.3,74,199.51,74,354.38s125.22,280.09,280.1,280.09S634.17,509.25,634.17,354.38,509,74.3,354.09,74.3Zm0,527.22A247.14,247.14,0,1,1,601.21,354.38,246.8,246.8,0,0,1,354.09,601.52Zm0,0" transform="translate(-3.89 -3.89)"/><path class="cls-1" d="M914.26,716.85V173.16c0-46.14-36.25-82.39-82.38-82.39H650.64v33H831.88c28,0,49.43,21.41,49.43,49.43V716.85Zm0,0" transform="translate(-3.89 -3.89)"/><path class="cls-1" d="M90.47,667.42V832.18c0,46.13,36.25,82.38,82.38,82.38H749.5V881.61H172.85c-28,0-49.43-21.43-49.43-49.43V667.42Zm0,0" transform="translate(-3.89 -3.89)"/><rect class="cls-1" x="696.18" y="169.27" width="148.28" height="32.95"/><rect class="cls-1" x="729.14" y="251.64" width="115.32" height="32.95"/><rect class="cls-1" x="729.14" y="334.02" width="115.32" height="32.96"/><rect class="cls-1" x="729.14" y="416.39" width="115.32" height="32.96"/><rect class="cls-1" x="729.14" y="498.78" width="115.32" height="32.95"/><rect class="cls-1" x="745.61" y="581.16" width="98.85" height="32.95"/><rect class="cls-1" x="152.49" y="729.44" width="444.84" height="32.95"/><rect class="cls-1" x="152.49" y="795.34" width="510.74" height="32.95"/><rect class="cls-1" x="234.86" y="482.3" width="230.66" height="32.95"/><rect class="cls-1" width="992.22" height="992.22"/><g class="cls-2"><rect class="cls-1" x="234.86" y="185.74" width="230.66" height="32.96"/><path class="cls-1" d="M803.86,698.72Q789,683.9,769.26,683.9H757.74L639.11,550.44c108.74-158.17,70.84-374-87.32-484.38S176.14-3.14,67.4,153.38s-70.84,374,87.33,484.38a346.2,346.2,0,0,0,413.54-13.18L683.6,754.74v13.19c0,13.17,4.94,26.35,14.83,34.59L869.77,973.87c29.65,29.65,75.79,29.65,105.45,0s29.66-75.79,0-105.44ZM41.05,354.38c0-173,140-313,313-313s313,140,313,313-140,313-313,313-313-140-313-313ZM593,604.81c8.23-8.24,18.11-18.12,24.71-26.36L726.43,700.38l-26.36,24.71ZM922.49,964c-11.53,0-21.41-4.94-29.66-11.54L721.49,781.1a14.91,14.91,0,0,1-4.94-11.53V756.39l39.54-39.54h13.17a15,15,0,0,1,11.54,4.94L952.15,893.14a41.74,41.74,0,0,1,0,59.3C943.91,959,932.37,964,922.49,964Zm0,0" transform="translate(-3.89 -3.89)"/></g></svg>